<svg xmlns="http://www.w3.org/2000/svg" width="70.4" height="70.44" viewBox="0 0 70.4 70.44">
  <defs>
    <style>
      .cls-1 {
        fill: #db3e97;
        fill-rule: evenodd;
      }
    </style>
  </defs>
  <path id="doneaza_btn" class="cls-1" d="M1081.64,2015.23a35.21,35.21,0,1,1-35.21,35.21A35.2,35.2,0,0,1,1081.64,2015.23Zm-0.41,26.67s3.3-4.95,8.39-5.26a10.113,10.113,0,0,1,11.09,9.27c0.37,5.08-3.15,9.71-6,12.86a65.839,65.839,0,0,1-13.17,10.69,65.2,65.2,0,0,1-13.41-10.4c-2.91-3.08-6.54-7.62-6.29-12.71a10.114,10.114,0,0,1,10.88-9.52C1077.82,2037.02,1081.23,2041.9,1081.23,2041.9Z" transform="translate(-1046.44 -2015.22)"/>
</svg>
