<svg xmlns="http://www.w3.org/2000/svg" width="70.437" height="70.44" viewBox="0 0 70.437 70.44">
  <defs>
    <style>
      .cls-1 {
        fill: #455996;
        fill-rule: evenodd;
      }
    </style>
  </defs>
  <path id="fb_btn" class="cls-1" d="M836.942,2015.23a35.21,35.21,0,1,1-35.211,35.21A35.208,35.208,0,0,1,836.942,2015.23Zm0.144,16.56a18.706,18.706,0,0,0-3.144,37.17v-14.54H829.4v-5.23h4.547v-3.85c0-4.48,2.752-6.92,6.772-6.92a35.457,35.457,0,0,1,4.06.21v4.67h-2.788c-2.186,0-2.607,1.04-2.607,2.55v3.34h5.215l-0.68,5.23h-4.535v14.66A18.707,18.707,0,0,0,837.086,2031.79Z" transform="translate(-801.719 -2015.22)"/>
</svg>
