<svg xmlns="http://www.w3.org/2000/svg" width="70.435" height="70.44" viewBox="0 0 70.435 70.44">
  <defs>
    <style>
      .cls-1 {
        fill: #76acec;
        fill-rule: evenodd;
      }
    </style>
  </defs>
  <path id="linkedin_btn" class="cls-1" d="M999.838,2015.23a35.21,35.21,0,1,1-35.211,35.21A35.212,35.212,0,0,1,999.838,2015.23Zm0.352,17.25a18.315,18.315,0,1,0,18.32,18.31A18.316,18.316,0,0,0,1000.19,2032.48Zm-5.319,27.68H990.41v-13.42h4.461v13.42Zm-2.231-15.25h-0.029a2.309,2.309,0,0,1-2.465-2.32A2.517,2.517,0,1,1,992.64,2044.91Zm18.32,15.25h-4.46v-7.18c0-1.8-.65-3.03-2.26-3.03a2.434,2.434,0,0,0-2.29,1.63,3.028,3.028,0,0,0-.15,1.09v7.49h-4.461s0.059-12.16,0-13.42h4.461v1.9a4.427,4.427,0,0,1,4.02-2.21c2.94,0,5.14,1.92,5.14,6.04v7.69Z" transform="translate(-964.625 -2015.22)"/>
</svg>
