<svg xmlns="http://www.w3.org/2000/svg" width="15.18" height="15.188" viewBox="0 0 15.18 15.188">
  <defs>
    <style>
      .cls-1 {
        fill: #fff;
        fill-rule: evenodd;
      }
    </style>
  </defs>
  <path id="linkedin_icon_small" class="cls-1" d="M1469.12,16.565v5.616a0.248,0.248,0,0,1-.24.251h-2.77a0.248,0.248,0,0,1-.24-0.251V16.958c0-1.374-.47-2.313-1.65-2.313a1.794,1.794,0,0,0-1.67,1.243,2.586,2.586,0,0,0-.1.829v5.463a0.247,0.247,0,0,1-.24.251h-2.77a0.241,0.241,0,0,1-.24-0.251c0-1.39.03-8.138,0-9.725a0.249,0.249,0,0,1,.24-0.254h2.77a0.247,0.247,0,0,1,.24.251v1.2a0.062,0.062,0,0,0-.02.033h0.02V13.651a3.2,3.2,0,0,1,2.93-1.69c2.14,0,3.74,1.462,3.74,4.6h0Zm-14.73,5.867h2.77a0.248,0.248,0,0,0,.24-0.251V12.453a0.247,0.247,0,0,0-.24-0.251h-2.77a0.247,0.247,0,0,0-.24.251v9.728A0.248,0.248,0,0,0,1454.39,22.432Zm3.03-13.352a1.742,1.742,0,1,1-1.74-1.82A1.782,1.782,0,0,1,1457.42,9.08Z" transform="translate(-1453.94 -7.25)"/>
</svg>
