<?xml version="1.0" encoding="utf-8"?>
<!-- Generator: Adobe Illustrator 25.2.3, SVG Export Plug-In . SVG Version: 6.00 Build 0)  -->
<svg version="1.1" id="Layer_1" xmlns="http://www.w3.org/2000/svg" xmlns:xlink="http://www.w3.org/1999/xlink" x="0px" y="0px"
	 viewBox="0 0 45.4 36" style="enable-background:new 0 0 45.4 36;" xml:space="preserve">
<style type="text/css">
	.st0{fill:#624397;}
	.st1{fill:#492D73;}
	.st2{fill:#EF5223;}
	.st3{fill:#F8EB10;}
	.st4{fill:#E2288F;}
	.st5{fill:#E0278F;}
	.st6{fill:#B71A76;}
	.st7{fill:#60BA46;}
	.st8{fill:#4F9D3B;}
	.st9{fill:#3F4950;}
</style>
<g>
	<g>
		<path class="st0" d="M34.6,0.3c0.7,0,1.7,0.1,1.4,1.7c-0.2,0.8-0.3,2.2-0.4,3.7c-0.6,12.5,0.9,16.5,2,22.1
			c0.5,2.5-1.6,5.4-2.9,5.1c-1.5-0.9-4-15.9-4.6-24.5c-0.1-1.3-0.2-2.5-0.2-3.5c0-0.6,0-1.1,0.1-1.5C30,3,30.2,2.2,30.3,2
			c0.2-0.7,0.6-1,1-1.2c0.2-0.1,0.7-0.2,0.9-0.2c0.5-0.1,1.1-0.2,1.5-0.2C33.9,0.4,34.3,0.3,34.6,0.3z"/>
		<path class="st1" d="M34.8,12.7c-0.3-0.6-0.7-1.1-1.2-1.6c-0.5-0.4-1.1-0.7-1.8-0.8c-0.2,0-0.4,0-0.6,0c-0.2,0-0.4,0.1-0.6,0.1
			c-0.1,0-0.3,0.1-0.4,0.1c0.1,1.3,0.3,2.8,0.5,4.3c0.1,0.1,0.1,0.1,0.2,0.2c0.1,0.1,0.3,0.3,0.5,0.5s0.5,0.4,0.7,0.5
			c0.3,0.1,0.6,0.2,0.9,0.3c0.1,0,0.2,0,0.3,0s0.2,0,0.3-0.1c0.1,0,0.2-0.1,0.3-0.1s0.2-0.1,0.3-0.2c0.5-0.4,0.8-0.9,0.9-1.5
			C35.2,13.9,35.1,13.3,34.8,12.7z"/>
		<path class="st1" d="M37.5,29.9c0.2-0.7,0.2-1.2,0.1-1.8c-0.1-0.3-0.2-0.8-0.3-1.3c0-0.1,0-0.2-0.1-0.3c-0.2,0.3-0.3,0.6-0.5,0.9
			c-0.4,0.7-0.6,1.3-0.6,1.7c0.1,0.1,0.1,0.3,0.3,0.4c0.1,0.1,0.3,0.2,0.6,0.3C37.1,29.8,37.3,29.8,37.5,29.9z"/>
		<path class="st2" d="M41.7,6c-0.9,0.1-1.5,1.1-2.3,2.1c-1.6,0-3.2,0-2.8,1.6c0.2,0.6,1,1.5,0.9,1.4c-1.9,2.7-1.4,4.4,1.3,2.8
			c0.1-0.1,0.9-0.4,1.1-0.5c1.5,4.1-3.9,13.5-3.9,15.1c0.3,0.6,1,0.6,3.3,1.1l0,0c0.1,0,0.7,0.4,1.5-1.5c1.2-2.8,2.6-12.9,2.2-15.6
			c0.2-0.1,1.3-0.3,2.1-1.1S45,9.8,44.6,9.5c-0.1-0.1-0.4-0.2-0.5-0.2c-0.4-0.3-0.9-0.4-1.3-0.7c-0.1-0.4,0.2-2-0.7-2.6
			C42,6,41.9,5.9,41.7,6z"/>
		<g>
			<g>
				<g>
					<path class="st3" d="M41,7.9C41.4,8,41.4,8.6,41.6,9c0.2,0.7-0.1,0.3,1.2,0.9c0.2,0.1,0.5,0.3,0.6,0.4l0,0v0.1
						c-0.1,0.6-1.2,0.7-1.5,0.8c-0.1,0-0.1,0.2-0.1,0.2s0,0.3,0.1,0.5c0,0.1,0.2,1-0.3,1.2c-0.4,0.1-1.2-0.9-1.4-1.2l-0.1-0.1
						c-0.1,0-0.8,0.6-1.4,0.6c-0.2,0-0.4-0.1-0.4-0.3c0,0,0,0,0-0.1c-0.1-0.4,0.6-1.4,0.6-1.5c0-0.3-1.3-0.9-0.9-1.4
						c0.2-0.3,0.7-0.2,1-0.2c1,0,0.7,0.3,1.3-0.6c0.2-0.3,0.4-0.5,0.6-0.6C40.9,7.9,41,7.9,41,7.9z"/>
				</g>
			</g>
			<g>
				<g>
					<path class="st4" d="M40.9,8.7c0.4,0.1,0.4,1,0.5,1.1s1.1,0.3,1.2,0.6l0,0v0.1c-0.1,0.5-0.9,0.5-1.1,0.6c-0.1,0-0.1,0.1,0,0.5
						c0,0,0,0.2,0,0.4c0,0.3-0.2,0.5-0.4,0.4c-0.4-0.2-0.8-0.8-0.9-0.8c-0.1,0-1,0.8-1.3,0.3c-0.1-0.3,0.5-1.1,0.4-1.2
						c-0.1-0.2-1.1-0.8-0.5-1.1c0.3-0.1,1,0,1.1,0c0.2,0,0.5-0.7,0.9-0.9H40.9z"/>
				</g>
			</g>
		</g>
		<path class="st5" d="M31.5,9.6c-1.7-0.3-2.2,0.8-3.1,1.2c-0.9,0.4-1.2-0.3-1.3-0.5c0-0.1-0.1-0.3-0.1-0.5
			c-0.1-0.6-0.6-0.6-0.9-0.6c-2.5-0.1-3.4-0.3-3.3,0.3c0.1,1.8,1.9,13.1,3.4,19c0.7,2.7,0.6,4.2,4.4,4.9c2.8,0.6-1.4-6.7-2.4-11.6
			c-0.5-2.2-0.8-6.8,1-7.9c1.3-0.8,1.8,1.5,3.6,1.6C36.1,16,35,10.1,31.5,9.6"/>
		<path class="st6" d="M24.2,14c-0.3,0.1-0.5,0.2-0.7,0.3c0.7,4,1.7,9.6,2.6,13.4c0.3,0.2,0.7,0.5,1.3,0.4c1.6,0,1.8-2.4,1.3-4
			C26.1,15.7,26.1,13.6,24.2,14z"/>
		<path class="st7" d="M9.4,1.6C1.1-0.3-0.4,11.5,9,15c2.3,0.8,4.2,0.6,4.2,0.6c-2.4,5.5-9.6,9.3-12.3,14.5
			c-1.1,2.2-0.9,3.6-0.8,4.1c0.7,4.6,5.1-2.4,14.2-3.6c5.5-0.7,9.8,4.5,9.4,0.3c-0.6-6.2-6.3-5.7-12.4-4c0.9-1.6,6.9-7.2,8.3-14.4
			c0.7-3.5,0.6-7.8-2.4-6.1c-0.5,0.3-1,0.7-1.5,1c-2.9,1.7-4.9-1.7-3.3-3C13.5,3.2,11.2,2,9.4,1.6"/>
		<g>
			<path class="st8" d="M22.5,29.3c0.2-0.1,0.4-0.2,0.6-0.4c0,0,0,0,0.1-0.1c-0.1-0.2-0.2-0.5-0.3-0.7c-0.4-0.7-0.9-1.2-1.5-1.6
				c-0.6-0.4-1.3-0.6-2.1-0.8c-0.8-0.1-1.7-0.2-2.6-0.1c-0.4,0-0.8,0.1-1.2,0.1c0.1,0.5,0.3,0.9,0.5,1.3c0.3,0.6,0.7,1.1,1.2,1.5
				s1,0.7,1.5,1c0.5,0.2,1.1,0.3,1.6,0.3c0.1,0,0.1,0,0.2,0s0.1,0,0.2,0s0.1,0,0.2,0s0.1,0,0.2,0c0.3-0.1,0.6-0.2,0.8-0.2
				C22.1,29.5,22.3,29.4,22.5,29.3z"/>
			<path class="st8" d="M15.8,20.8c0.5-0.7,0.9-1.4,1.3-2.1c0.6-1.1,1.2-2.2,1.6-3.3h-0.1c-0.1,0-0.1,0-0.2,0s-0.1,0-0.2,0
				c-0.2,0.1-0.4,0.2-0.5,0.4c-0.2,0.1-0.3,0.3-0.4,0.4c-0.1,0.2-0.2,0.3-0.3,0.6c-0.1,0.2-0.2,0.4-0.3,0.7c-0.4,1.3-0.7,2.3-0.9,3
				C15.8,20.7,15.8,20.7,15.8,20.8z"/>
		</g>
		<path class="st3" d="M19.7,14.6c-0.1,0-0.5,0.1-0.6,0.1c-1.3,0.9-1.5,1.7-2.4,5.1c-0.8,3-0.9,6,1.4,8.1c1.9,1.7,4.2,1.6,5.9,0.3
			c0.2-0.2,0.5-0.4,0.8-0.7c0.6-0.6,0.7,0.6,2.1,0.6c1.6,0,1.8-2.4,1.3-4c-2.5-8.4-2.5-10.5-4.5-10.1c-1.9,0.3-0.8,2.1-0.9,6.4
			c0,1-0.1,2.1-1.1,2.6c-0.9,0.5-2-0.2-1.6-2.5C20.6,16.1,20.8,15,19.7,14.6"/>
	</g>
	<g>
		<g>
			<path class="st9" d="M39.4,31.1c0,0.2-0.1,0.4-0.2,0.5c-0.1,0.1-0.3,0.2-0.5,0.2s-0.4-0.1-0.5-0.2S38,31.3,38,31.1
				s0.1-0.4,0.2-0.5c0.1-0.1,0.3-0.2,0.5-0.2s0.4,0.1,0.5,0.2S39.4,30.9,39.4,31.1z M39.3,31.1c0-0.2-0.1-0.3-0.2-0.4
				c-0.1-0.1-0.3-0.2-0.4-0.2c-0.2,0-0.3,0.1-0.4,0.2c-0.1,0.1-0.2,0.3-0.2,0.4c0,0.2,0.1,0.3,0.2,0.4c0.1,0.1,0.3,0.2,0.4,0.2
				c0.2,0,0.3-0.1,0.4-0.2S39.3,31.2,39.3,31.1z M38.4,30.7c0-0.1,0.1-0.1,0.3-0.1c0.1,0,0.2,0,0.2,0.1c0.1,0,0.1,0.1,0.1,0.2
				s0,0.1,0,0.1l0,0c0,0,0,0.1-0.1,0.1c0,0,0,0,0,0.1c0,0,0,0,0.1,0.1c0,0.1,0.1,0.1,0.1,0.2s0,0.1-0.1,0.1h-0.1v-0.1
				c0-0.1,0-0.1-0.1-0.1l0,0c0,0,0,0,0,0.1v0.1l0,0h-0.1c-0.1,0-0.1,0-0.1,0c0-0.1,0-0.2,0-0.4C38.3,30.9,38.3,30.8,38.4,30.7z
				 M38.5,30.9c0,0.1,0,0.1,0.1,0.1s0.1,0,0.1-0.1C38.8,30.8,38.7,30.8,38.5,30.9C38.6,30.8,38.5,30.8,38.5,30.9z"/>
		</g>
	</g>
</g>
</svg>
