<?xml version="1.0" encoding="utf-8"?>
<!-- Generator: Adobe Illustrator 25.2.3, SVG Export Plug-In . SVG Version: 6.00 Build 0)  -->
<svg version="1.1" id="Layer_1" xmlns="http://www.w3.org/2000/svg" xmlns:xlink="http://www.w3.org/1999/xlink" x="0px" y="0px"
	 viewBox="0 0 66 36" style="enable-background:new 0 0 66 36;" xml:space="preserve">
<style type="text/css">
	.st0{fill-rule:evenodd;clip-rule:evenodd;fill:#333333;}
</style>
<path id="M.R." class="st0" d="M27.1,28.2c-0.7-0.3-1.2-1-1.3-1.8L23.4,6h-0.3l-8.7,19.2L5.5,6H5.2L2.8,26.4C2.7,27,2.4,27.5,2,27.9
	c-0.4,0.4-1,0.6-1.5,0.5h-0.5v0.3h6.2v-0.3H5.6c-0.3,0-0.7-0.2-0.9-0.4c-0.2-0.2-0.4-0.6-0.3-0.9l1.4-15.6l8.2,17.7h0.3
	c0.2-1.1,0.6-2.2,1.1-3.3L22,11.1l1.4,16c0,0.3-0.1,0.7-0.3,0.9c-0.2,0.3-0.6,0.4-0.9,0.4h-0.5v0.3h6.9v-0.3h-0.5
	C27.8,28.5,27.4,28.4,27.1,28.2L27.1,28.2L27.1,28.2z M34.1,27.5c0-0.8-0.7-1.4-1.4-1.4c-0.8,0-1.4,0.7-1.4,1.4
	c0,0.8,0.7,1.4,1.4,1.4c0.4,0,0.7-0.2,1-0.4C33.9,28.2,34.1,27.8,34.1,27.5L34.1,27.5z M65.7,33.9c-0.3,0-0.5,0.1-0.8,0.1
	c-1.3,0-2.6-0.4-3.7-1c-0.8-0.4-1.5-0.9-2.1-1.5c-0.8-0.7-1.7-1.5-2.8-2.6c-1-1-3.4-3.6-7.1-7.7c-0.9-1-1.7-1.9-2.5-2.7h0
	c1.5,0,2.9-0.7,3.8-1.9c1-1.2,1.6-2.8,1.6-4.5c0.1-1.6-0.6-3.1-1.7-4.2c-1.2-1.1-2.9-1.7-4.5-1.6h-8.6v0.3h0.4c0.5,0,1,0.2,1.4,0.6
	c0.4,0.4,0.6,0.9,0.6,1.4v17.7c0,1.1-0.9,2-2,2h-0.4v0.3h7l0-0.3H44c-1.1,0-2-0.9-2-2v-19h4c1.1,0,2.2,0.5,2.9,1.4
	c0.7,1.1,1.1,2.4,1,3.7c0.1,1.6-0.6,3.1-1.9,4c-0.4,0.3-0.8,0.4-1.2,0.6c-0.4,0.1-0.9,0.2-1.3,0.3c-0.8,0.1-1.6,0.1-2.5,0.1v0.3
	c0.7,0.2,1.3,0.7,1.7,1.3c0.7,0.8,2.3,2.5,4.5,5s3.8,4.2,4.6,5.2c0.8,0.9,1.7,1.8,2.7,2.6c0.5,0.4,1,0.8,1.6,1.2
	c0.5,0.3,1.1,0.6,1.7,0.8c0.5,0.2,1.1,0.4,1.7,0.5c0.6,0.1,1.2,0.1,1.8,0.1c0.8,0,1.6-0.1,2.4-0.4l0,0L65.7,33.9L65.7,33.9z
	 M65.1,27.5c0-0.8-0.7-1.4-1.4-1.4c-0.8,0-1.4,0.7-1.4,1.4c0,0.8,0.7,1.4,1.4,1.4c0.4,0,0.7-0.2,1-0.4
	C64.9,28.2,65.1,27.8,65.1,27.5L65.1,27.5z"/>
</svg>
