<?xml version="1.0" encoding="utf-8"?>
<!-- Generator: Adobe Illustrator 25.2.3, SVG Export Plug-In . SVG Version: 6.00 Build 0)  -->
<svg version="1.1" id="Layer_1" xmlns="http://www.w3.org/2000/svg" xmlns:xlink="http://www.w3.org/1999/xlink" x="0px" y="0px"
	 viewBox="0 0 168 165" style="enable-background:new 0 0 168 165;" xml:space="preserve">
<style type="text/css">
	.st0{fill-rule:evenodd;clip-rule:evenodd;fill:#6354A3;}
	.st1{fill-rule:evenodd;clip-rule:evenodd;fill:#FFDE36;}
	.st2{fill-rule:evenodd;clip-rule:evenodd;fill:#F5C49F;}
	.st3{fill-rule:evenodd;clip-rule:evenodd;fill:#4F2700;}
	.st4{fill-rule:evenodd;clip-rule:evenodd;fill:#6DBF69;}
	.st5{fill-rule:evenodd;clip-rule:evenodd;fill:#ACD4F0;}
	.st6{fill-rule:evenodd;clip-rule:evenodd;fill:#EC202A;}
	.st7{fill-rule:evenodd;clip-rule:evenodd;fill:#609CD3;}
	.st8{fill-rule:evenodd;clip-rule:evenodd;fill:#E45E93;}
	.st9{fill-rule:evenodd;clip-rule:evenodd;fill:#FFFFFF;}
	.st10{fill-rule:evenodd;clip-rule:evenodd;fill:#754E00;}
	.st11{fill-rule:evenodd;clip-rule:evenodd;fill:#A7774A;}
	.st12{fill-rule:evenodd;clip-rule:evenodd;fill:#EE3E2D;}
	.st13{fill-rule:evenodd;clip-rule:evenodd;fill:#D94096;}
	.st14{fill-rule:evenodd;clip-rule:evenodd;fill:#F8A03A;}
	.st15{fill-rule:evenodd;clip-rule:evenodd;fill:#EEF0F5;}
	.st16{fill:#6354A3;}
</style>
<g>
	<path class="st0" d="M129.9,123.3c0-2.1-10.5,5.1-12,6.3c-1.7,1.3-2.9,2.6-2.7,3.4c0.1,0.6,1.1,0.8,2.3,1.5c4.7,3.2,6.8,9.5,13.5,5
		c0.3-0.2,0.5-0.6,0.8-1C134.8,134.3,129.9,125.4,129.9,123.3"/>
	<path class="st1" d="M130.7,139.4c5.1-3.9-0.9-11.3-1.3-16.2c-4,0.9-8.6,4.1-13.8,9.6c3.6,2,8.3,8.5,11.2,8.4
		C128.2,141,129.5,140.5,130.7,139.4"/>
	<path class="st0" d="M126.1,128.5l-4.2-13.4c-0.9,1-1.9,2-2.9,3l2.5,9.2c0.1,0.4-0.3,0.8-0.7,0.5l-7-5.3c-1.2,0.8-2.3,1.6-3.6,2.4
		l10,7.8l0.3,0.3c0.8-0.7,1.5-1.5,2.3-2.2l2.5-2C125.7,128.7,125.9,128.6,126.1,128.5"/>
	<path class="st0" d="M121.2,139.7L121.2,139.7c1.8,0.4,3.2,0.7,4.2,0.9c0.6,0.1,1.5,0.2,2,0c0,0,0.1,0,0.1,0l0,0l0,0
		c0.6-0.2,0.9-0.7,1.6-0.5c0,0,0.1,0,0.1,0c0-0.1,0.1-0.1,0.1-0.2c0.4-0.7,0.7-1,1.6-1.2c-0.2-1,0.3-0.9,0.7-1.6l0,0
		c0-0.1,0.1-0.1,0.1-0.2l0,0c0.2-0.5,0.3-1.2,0.3-1.7c0-1.2,0-3.1,0-5.5l0,0l0-0.6v0c0-0.4,0-0.8,0-1.2l0,0l0-0.4l0,0l0-0.6l0,0
		l0-0.9c0-1.7-0.7-1.6-0.8-0.8c0,0.3-0.1,1-0.2,2l0,0c0,0.2,0,0.4,0,0.6l0,0l0,0.4l0,0c0,0.4,0,0.7-0.1,1.1l0,0l0,0.4l0,0
		c-0.1,1.8-0.2,3.6-0.3,3.8c0,0.1-0.1,0.1-0.1,0.1c0,0-0.1,0-0.1,0c-0.8-0.3-1.5-1-2.2-1.8l0,0c-0.2-0.3-0.4-0.5-0.6-0.7l0,0
		c-0.1-0.2-0.3-0.3-0.4-0.5l-0.2-0.2l-0.3-0.4l-1.5,1.2c-0.8,0.7-2.6,2.5-3.7,3.2c0.3,0.4,0.5,0.7,0.8,1.1l0,0
		c0.2,0.3,0.4,0.5,0.6,0.8l0,0c0.5,0.7,1,1.4,1.5,2.1c0,0,0,0.1,0.1,0.1c0,0.1,0,0.1,0,0.1c0,0.2,0,0.2-0.3,0.2
		c-0.3,0-1.4-0.1-2.8-0.3l0,0c-0.4,0-0.8-0.1-1.3-0.1l0,0l-0.5,0l0,0L119,138l0,0l-0.6-0.1l0,0c-1.4-0.1-2.5-0.3-2.9-0.3
		c-0.9-0.1-1.1,0.6,0.6,0.9c0.8,0.2,1.5,0.3,2.2,0.5l0.1,0l0.6,0.1l0.1,0l0.6,0.1l0.1,0l0.6,0.1l0.1,0L121.2,139.7z"/>
	<path class="st2" d="M129,144.9c0.2-0.2-0.1-0.5-0.2-1.1c-0.1-1.7,1.1-3,1.1-3.2c-0.1-0.2-0.4-0.5-0.6-0.6c0.4-0.8,0.7-1.2,1.7-1.4
		c0,0,0,0,0,0c0.1,0.3,0.3,0.6,0.6,0.6c0.4,0,1.7-1.2,3.9-0.3c0.1,0,0.5,0.3,0.7,0.4c-0.1-0.4,1,0.2,1.4,0.7c0,0-0.1,0.1-0.1,0.1
		c-1.2,1.6-1.5,2.8-3.5,4.3c-1.1,0.8-2.1,1.7-3.4,1.9c-0.4,0.1-0.9,0.3-1.3,0.5C128.8,146.1,128.5,144.7,129,144.9"/>
	<path class="st3" d="M130.8,142.2c0.1-0.5,0.4-0.9,0.8-1.2l0,0l0,0l0,0l0,0l0,0c0.4-0.3,0.8-0.5,1.3-0.5c0.3,0,0.2-0.1,0-0.1
		c-0.5,0-1,0.2-1.4,0.5c-0.4,0.3-0.7,0.8-0.8,1.3C130.6,142.4,130.7,142.5,130.8,142.2"/>
	<path class="st3" d="M131.6,144.8c0.1-0.1,0.1-0.3,0-0.4c-0.1-0.1-0.3-0.2-0.4-0.1c-0.1,0.1-0.1,0.3,0,0.4
		C131.3,144.8,131.5,144.8,131.6,144.8"/>
	<path class="st0" d="M139.1,145c0.6-1.6,0.3-2.7-0.6-3.8c-1.1,1.5-4.5,5.7-8.8,6.3c0.6,0.8,1.2,1.5,2,1.8c1,0.3,1.9,0.5,3.2-0.1
		c0.2-0.1,0.9-0.3,1.1-0.5c1.5-0.9,1.5-1.3,2.2-2.5C138.4,145.9,138.9,145.3,139.1,145"/>
	<path class="st1" d="M127.5,138.2c-0.2,0.6-0.9,1-1.7,0.3c-0.5-0.5-0.6-1.1,0-1.5C126.7,136.2,127.9,136.9,127.5,138.2"/>
	<path class="st0" d="M135.5,142c-0.5,0.4-1,0.6-1.2,0.5c-0.2-0.2,0-0.7,0.5-1.1c0.5-0.4,1-0.6,1.2-0.5
		C136.2,141,135.9,141.5,135.5,142 M131.5,145c0.5-0.3,0.9-0.8,0.7-1c-0.1-0.2-0.7-0.1-1.2,0.2c-0.5,0.3-0.9,0.8-0.7,1
		C130.4,145.4,131,145.3,131.5,145z M135.2,139.6c-1.6,1-2.3,1.6-2.1,2.1c0.1,0.5-0.1,1.2-1,1c-0.4-0.4-1.5,0.3-1.9,0.6
		c-1.5,1-1.8,1.2-0.4,3.4c0.3-0.1,0.6-0.3,0.9-0.3c1.2-0.2,2.3-1,3.4-1.9c1.9-1.5,2.3-2.6,3.4-4.2
		C136.9,139.7,135.8,139.2,135.2,139.6z"/>
	<path class="st3" d="M135.4,141.9c0.1-0.1,0.1-0.3,0-0.4c-0.1-0.2-0.3-0.2-0.4-0.1c-0.1,0.1-0.1,0.3,0,0.4
		C135.1,141.9,135.3,142,135.4,141.9"/>
	<path class="st0" d="M138.5,141.2c0.7-1.5-0.6-1.5-0.9-1c-1.2,1.6-1.5,2.8-3.5,4.3c-1.1,0.8-2.1,1.7-3.4,1.9
		c-0.4,0.1-1.1,0.4-1.4,0.6c-0.2,0.2-0.1,0.5,0.2,0.5C133.8,147,137.3,142.7,138.5,141.2"/>
	<path class="st1" d="M136,147.1c-0.5,0.3-1.1,0.3-1.4-0.2c-0.3-0.5-0.3-1.1,0.2-1.5c0.5-0.3,1.1-0.3,1.5,0.2
		C136.5,146.1,136.4,146.8,136,147.1"/>
	<path class="st4" d="M131.2,138.2c-1.9-0.3-3.3-1.6-4.1-3.7c0.2-0.4,0.7-0.7,1.6-1.2c1.4-1,0.8-1.7,2-0.1c0.3,0.1,0.8,0.1,1.6,0.1
		C132.6,135.4,132.2,137.1,131.2,138.2"/>
	<path class="st4" d="M127.5,132.4c-0.1-0.4-0.4-0.6-0.7-0.4l-0.7,0.6c-0.3,0.2,0.1,0.9,0.4,0.7l0.6-0.5
		C127.2,132.8,127.6,132.6,127.5,132.4"/>
	<path class="st1" d="M125.6,133.9c-0.1-0.4-0.4-0.6-0.7-0.4l-0.7,0.6c-0.3,0.2,0.1,0.9,0.4,0.7l0.6-0.5
		C125.3,134.3,125.6,134.1,125.6,133.9"/>
	<path class="st1" d="M126.8,131.4c-0.1-0.4-0.4-0.6-0.7-0.4l-0.7,0.6c-0.3,0.2,0.1,0.9,0.4,0.7l0.6-0.5
		C126.4,131.7,126.8,131.5,126.8,131.4"/>
	<path class="st1" d="M124.8,132.9c-0.1-0.4-0.4-0.6-0.7-0.4l-0.7,0.6c-0.3,0.2,0.1,0.9,0.4,0.7l0.6-0.5
		C124.5,133.2,124.8,133,124.8,132.9"/>
	<path class="st4" d="M155.3,71.2L155.3,71.2c-0.2,0.5-0.5,1-0.8,1.3c-0.7,0.8-1.8,2.1-3.2,3.7l-0.9-0.5c1-1.3,1.9-2.5,2.1-2.7
		c0-0.1,0-0.1,0-0.1c0,0,0,0-0.1,0L155.3,71.2z"/>
	<path class="st1" d="M154.6,66.2L154.6,66.2c0.3,0.6,0.2,1.1,0.9,1.4c-0.2,0.8-0.2,1.2,0.3,1.9c-0.7,0.5-0.3,0.8-0.5,1.5
		c0,0.1,0,0.1-0.1,0.2l-3,1.6c-0.3-0.1-0.9-0.2-1.4-0.2l1-1.7l-0.2-1.5l0,0l0-0.1l0-0.1l0,0l-0.3-1.5l-1.5-1.3l1.3-0.3
		c0,0,0.1,0,0.1-0.1c0,0,0.1,0,0.1-0.1L154.6,66.2z"/>
	<path class="st5" d="M149,62.6L149,62.6c1.9,1,3.2,1.8,4.2,2.3c0.5,0.3,1.1,0.7,1.4,1.2c0,0,0,0,0,0.1l-3.3-0.2
		c0.1-0.1,0.1-0.2-0.1-0.3c-0.3-0.2-1.6-1.1-3-2.1l0,0L149,62.6z"/>
	<path class="st2" d="M145.8,60.9c1.2,0.7,2.2,1.2,3.2,1.8l-0.7,0.9c-1.5-1-3-2.1-3.4-2.4C144.3,60.7,144.5,60.1,145.8,60.9"/>
	<path class="st2" d="M158.2,64.2c0,0.2-0.4,0.2-0.7,0.6c-1,1-1,2.6-1.1,2.8c-0.2,0.1-0.5,0.1-0.8,0.1c-0.2,0.8-0.2,1.2,0.3,1.9
		c0,0,0,0,0,0c0.3-0.1,0.6-0.2,0.8-0.1c0.3,0.2,0.4,1.8,2.4,2.5c0.1,0.1,0.3,0,0.5,0.1c-0.4,0.3,2,1.4,1.8,0.1
		c-0.4-0.3-0.5-0.4-0.4-0.5c2.6-1.5,2.1-7.1-1-7.7c-0.1,0,0,0,0.3-0.5C160,62.3,157.4,63.9,158.2,64.2"/>
	<path class="st3" d="M158,66.8c-0.3,0.4-0.3,1-0.2,1.4l0,0l0,0l0,0l0,0l0,0c0.1,0.5,0.3,1,0.7,1.3c0.2,0.2,0,0.2-0.1,0.1
		c-0.4-0.3-0.7-0.8-0.8-1.4l0,0c-0.1-0.5,0-1.1,0.3-1.6C158,66.6,158.2,66.5,158,66.8"/>
	<path class="st3" d="M159.9,65.8c0-0.1-0.1-0.2-0.3-0.2c-0.2,0-0.3,0.1-0.3,0.2c0,0.1,0.1,0.2,0.3,0.2
		C159.8,66.1,159.9,66,159.9,65.8"/>
	<path class="st3" d="M160.6,69.9c0-0.1-0.2-0.2-0.4-0.1c-0.2,0.1-0.2,0.2-0.2,0.3c0,0.1,0.2,0.2,0.4,0.1
		C160.6,70.1,160.7,70,160.6,69.9"/>
	<path class="st4" d="M158.3,62c0.8-0.8,2.3-1,4.1,1.9c1.4,2.2,2.7,5.8,1.1,8c-1.3,1.8-3,2-4.6,0.7c-0.7-0.6-0.3-0.9-0.6-1
		c0.2,0.1,0.4,0.2,0.7,0.3c0.1,0.1,0.3,0,0.5,0.1c-0.2,0.1,0.1,0.3,0.4,0.5c-0.1-0.5,0.3-0.8,0.9-1.1c2.7-1.2,1.4-5.1-0.6-6.9
		c-0.4-0.3-0.8-0.6-1.2-0.7c-0.4-0.2-1,0.3-0.8,0.4c0,0.2-0.4,0.2-0.7,0.6c0,0-0.1,0.1-0.1,0.1l0,0c-0.3,0-0.3-0.2-0.3-0.4
		c0-0.6,0.6-1.7,0.9-2.2C158.1,62.1,158.2,62.1,158.3,62L158.3,62z M158.3,71.5L158.3,71.5L158.3,71.5L158.3,71.5z"/>
	<path class="st6" d="M151.4,67.7l0.3,1.5l0,0l0,0.1l0,0.1l0,0l0.2,1.5l-1.1,1.9l-3.7,0.3l-12.6,7.5c0-1.2-0.1-2.3-0.2-3.5l8.7-5.6
		c0.3-0.2,0.2-0.7-0.2-0.7l-9.6-0.7c-0.3-1.2-0.6-2.4-1-3.6l13.2,0.8l0.9-0.1l3.5-0.9L151.4,67.7z"/>
	<polygon class="st1" points="142.8,75.3 137.7,78.5 137.2,77.4 142.2,74.1 	"/>
	<path class="st1" d="M135.3,67.2l6,0.2c0,0.3-0.1,0.6-0.2,1.8l-5.6-0.3L135.3,67.2z"/>
	<polygon class="st7" points="154.9,66.4 149.5,68.5 149.6,69 155.2,66.9 	"/>
	<polygon class="st7" points="155.7,70.9 149.8,70.8 149.8,70.3 155.7,70.3 	"/>
	<path class="st1" d="M148.9,69.9c0.1,0.8-0.4,1.6-1.2,1.8c-0.8,0.1-1.6-0.4-1.8-1.2c-0.1-0.8,0.4-1.6,1.2-1.8
		C148,68.5,148.8,69,148.9,69.9"/>
	<path class="st6" d="M163.7,60.7c0,0-0.1,0.1-0.1,0.1l-0.1,0.1l-1.1,1.1c0.4,0.5,0.8,1.2,1.2,1.9c0.2-0.1,0.5-0.2,0.7-0.3
		c0.2-0.1,0.4-0.2,0.6-0.3C164.5,62.3,164.1,61.5,163.7,60.7"/>
	<path class="st8" d="M164.9,63.2c-0.2,0.1-0.4,0.2-0.6,0.3c-0.2,0.1-0.5,0.2-0.7,0.3c0.5,0.9,0.8,2,1.1,3c0.2,0,0.4-0.1,0.6-0.1
		c0.2,0,0.4-0.1,0.6-0.1l0.3-0.1C165.8,65.4,165.4,64.3,164.9,63.2"/>
	<path class="st6" d="M167.4,66.3l-1.3,0.2c-0.3-1.1-0.8-2.3-1.2-3.3c0.4-0.2,0.7-0.4,1-0.5c0.1,0,0.1-0.1,0.2-0.1
		C166.7,63.6,167.2,65,167.4,66.3"/>
	<path class="st7" d="M164.9,63.2c0.4-0.2,0.7-0.4,1-0.5c0.1,0,0.1-0.1,0.2-0.1c0-0.1-0.1-0.1-0.1-0.2c-0.3-0.6-0.6-1.1-0.9-1.4
		c-0.5-0.5-1-0.7-1.5-0.2C164.1,61.5,164.5,62.3,164.9,63.2"/>
	<path class="st5" d="M165.2,70.4l1.2,0l0.3,0c0,0,0.1,0,0.1-0.1c0-1.2-0.3-2.5-0.6-3.7l-0.3,0.1c-0.2,0-0.4,0.1-0.6,0.1
		c-0.2,0-0.4,0.1-0.6,0.1C165.1,68.1,165.2,69.3,165.2,70.4"/>
	<path class="st7" d="M164.7,66.8c-0.3,0.1-0.6,0.1-0.9,0.2c-0.3-1-0.7-1.9-1.2-2.7c0.2-0.1,0.4-0.2,0.6-0.3c0.1,0,0.2-0.1,0.3-0.1
		C164,64.8,164.4,65.8,164.7,66.8"/>
	<path class="st1" d="M162.7,64.3c0.2-0.1,0.4-0.2,0.6-0.3c0.1,0,0.2-0.1,0.3-0.1c-0.3-0.7-0.7-1.3-1.2-1.9l-0.7,0.7l-0.1,0.1
		c0.1,0.1,0.2,0.2,0.3,0.4c0.2,0.2,0.3,0.5,0.5,0.8C162.5,64,162.5,64.1,162.7,64.3L162.7,64.3z"/>
	<path class="st1" d="M164.2,70.4l0.4,0l0.7,0c0-1-0.2-2.3-0.5-3.6c-0.3,0.1-0.6,0.1-0.9,0.2c0,0.1,0,0.1,0.1,0.2
		c0.2,0.8,0.4,1.6,0.3,2.4C164.2,69.9,164.2,70.1,164.2,70.4"/>
	<path class="st2" d="M149,79c0.9-1,1.5-2,2.3-2.8l-0.9-0.5c-1,1.5-2.1,3-2.4,3.4C147.6,79.7,148,80.1,149,79"/>
	<path class="st4" d="M0.8,65.1c0.6-2.8,3.1-4.7,5.8-4.2c2.3,0.5,3.9,2.6,3.9,5.1c0.4,0.1,0.8,0.2,1,0.1c0.3-0.1,0.3-1.6,0.7-2.1
		c0.5-0.6,2-1,3.9-2.1c0.5-0.3,4.2-1.8,6.2-3.1c2.2-1.3,2.2-0.7,1.4,0c-2.3,2.1-4.9,3.2-7.4,5.1c-0.4,0.3-0.1,0.5,0.4,0.7
		c1.4,0.6,2.8,1.1,4.4,1.2c0.2,0,0.7,0,1.5,0.1l13.6-0.6c-0.4,1.2-0.8,2.4-1.1,3.6c-3.8,0.1-7.9,0.3-11.5,0.4
		c-0.7,0-0.8,0.3-0.1,0.6c3.3,1.5,7.1,3.2,10.5,4.7c-0.2,1.2-0.3,2.5-0.4,3.7l-12.3-5.7c-0.7-0.3-1.2-0.5-1.4-0.5
		c-1.5-0.5-3-0.5-4.5-0.5c-0.5,0-0.9,0-0.6,0.5c1.6,2.7,3.6,4.7,5,7.5c0.5,1,0.2,1.6-1.3-0.5c-1.4-1.9-4.2-4.7-4.6-5.2
		c-1.4-1.7-2.6-2.7-2.8-3.4c-0.2-0.6,0.4-2,0.1-2.2c-0.2-0.2-0.5-0.3-1-0.3c-0.9,2.3-3.2,3.7-5.5,3.2C2,70.6,0.3,67.9,0.8,65.1"/>
	<path class="st9" d="M7.4,68.1c0.4-0.4,0.7-1,0.8-1.6h0l0,0l0,0l0,0l0,0c0.1-0.6,0-1.3-0.2-1.8c-0.2-0.3,0-0.2,0.1-0.1
		c0.3,0.5,0.4,1.2,0.3,1.9l0,0c-0.1,0.7-0.4,1.4-0.9,1.8C7.4,68.3,7.2,68.3,7.4,68.1"/>
	<path class="st9" d="M4.4,68.2c-0.1,0.2,0,0.4,0.2,0.4c0.2,0.1,0.4,0,0.5-0.1c0.1-0.2,0-0.4-0.2-0.4C4.6,68,4.4,68,4.4,68.2"/>
	<path class="st9" d="M5,63.5c0,0.2,0.2,0.3,0.4,0.3c0.2,0,0.4-0.1,0.4-0.3c0-0.2-0.2-0.3-0.4-0.3C5.2,63.2,5,63.3,5,63.5"/>
	<path class="st0" d="M0.3,95.1c-0.4-2.9,1.4-5.5,4-5.9c2.3-0.4,4.6,1.2,5.4,3.5c0.4,0,0.8-0.1,1-0.3c0.2-0.2-0.2-1.6,0-2.2
		c0.2-0.7,1.6-1.7,3-3.3c0.4-0.5,3.3-3.1,4.8-5c1.6-2,1.8-1.4,1.3-0.4c-1.5,2.7-3.6,4.6-5.3,7.3c-0.3,0.5,0.1,0.5,0.6,0.5
		c1.5,0.1,3,0.1,4.5-0.3c0.2,0,0.7-0.2,1.4-0.4l12.4-5.1c0,1.3,0.1,2.5,0.3,3.7c-3.5,1.4-7.2,2.9-10.6,4.2c-0.7,0.3-0.6,0.5,0.1,0.6
		c3.6,0.3,7.7,0.6,11.4,0.9c0.3,1.2,0.6,2.4,1,3.6L22,95.3c-0.8,0-1.3,0-1.5,0c-1.6,0.1-3,0.5-4.4,1c-0.5,0.2-0.8,0.3-0.4,0.7
		c2.4,2,5,3.2,7.2,5.4c0.8,0.8,0.7,1.4-1.4,0c-2-1.4-5.5-3-6-3.4c-1.8-1.1-3.4-1.6-3.8-2.2c-0.4-0.5-0.3-2-0.6-2.1
		c-0.2-0.1-0.6-0.1-1,0c-0.1,2.5-1.7,4.6-4.1,4.9C3.2,99.9,0.7,98,0.3,95.1"/>
	<path class="st9" d="M7.5,95.7c0.3-0.5,0.3-1.2,0.2-1.8l0,0l0,0l0,0l0,0l0,0c-0.1-0.6-0.4-1.2-0.8-1.6C6.6,92,6.8,92,7,92.1
		c0.5,0.4,0.8,1,0.9,1.7l0,0C8,94.5,8,95.2,7.7,95.8C7.6,96,7.4,96,7.5,95.7"/>
	<path class="st9" d="M4.7,96.9c0,0.2,0.2,0.3,0.4,0.3c0.2,0,0.4-0.1,0.4-0.3c0-0.2-0.2-0.3-0.4-0.3C4.9,96.6,4.7,96.7,4.7,96.9"/>
	<path class="st9" d="M3.7,92.2c0.1,0.2,0.3,0.2,0.5,0.2c0.2-0.1,0.3-0.3,0.3-0.4c-0.1-0.2-0.3-0.2-0.5-0.2
		C3.8,91.9,3.7,92.1,3.7,92.2"/>
	<path class="st2" d="M84.6,9.4c0.7,1.1,2.2,1.7,3.3,0.8c-0.4-0.1-0.7-0.4-0.6-1c0-0.9-0.1-0.9,0.7-1.4c1.7-1.2,0.7-4.7,0.1-5.4
		c-0.6-0.6-2.1-0.4-2.6-1.6h0c0.4,1.3-3.1,0.9-3.1,3c0,1.7,0.3,4.3,2.4,4.4C86,8.1,85.5,9,84.6,9.4"/>
	<path class="st3" d="M84.7,6.6c0.3,0.3,0.7,0.5,1.1,0.5l0,0l0,0l0,0l0,0v0c0.4,0,0.8-0.2,1.1-0.5c0.2-0.2,0.2,0,0.1,0.1
		c-0.3,0.4-0.8,0.6-1.2,0.5h0c-0.5,0-0.9-0.2-1.2-0.6C84.6,6.6,84.6,6.4,84.7,6.6"/>
	<path class="st3" d="M84,4.4c0.1,0,0.3,0.1,0.3,0.3c0,0.2-0.1,0.3-0.2,0.3c-0.1,0-0.3-0.1-0.3-0.3C83.8,4.6,83.8,4.4,84,4.4"/>
	<path class="st3" d="M87.8,4.4c0.1,0,0.2,0.2,0.2,0.3c0,0.2-0.2,0.3-0.3,0.2c-0.1,0-0.2-0.2-0.2-0.3C87.5,4.5,87.6,4.4,87.8,4.4"/>
	<path class="st2" d="M89.8,26c0.2,1.8,0.6,3.9,0.9,5.8c-0.8-0.1-1.6-0.2-2.4-0.2c-0.4-1.7-0.7-3.5-1-5.1
		C88.2,26.4,89.1,26.2,89.8,26"/>
	<path class="st2" d="M81.6,25.8c-0.4,1.8-1,4-1.5,5.9c0.8-0.1,1.7-0.1,2.5-0.2c0.5-1.7,1.1-3.5,1.5-5.1
		C83.2,26.3,82.4,26.1,81.6,25.8"/>
	<path class="st6" d="M85.9,26.5c-3.4,0-6.8-1.3-7-3.7c0.3-1.6,2.7-4.2,3.7-5.3c0,0,0-0.1,0.1-0.1l0,0c0.1-2.8-0.2-5.7-0.3-5.5
		c-1.4,1.3-2.1,4.3-2.8,4.1c-0.2,0-1.6-1.4-1.7-1.5c0.5,0,3.6-3.9,3.8-4.4c0.5-0.9,1-1.2,1.9-1.2c0.1,0,0.3,0,0.3,0.1
		C84,9,84.2,9.1,84.5,9.4c0.8,1.3,2.5,1.9,3.7,0.5l0,0c0-0.5,0.2-0.9,0.6-0.9c0.9,0,1.4,0.3,1.9,1.2c0.3,0.5,3.3,4.5,3.8,4.5
		c0,0.1-1.5,1.4-1.7,1.5c-0.7,0.2-1.6-2.8-3-4.1c-0.7-0.7-0.9,5.5-0.5,5.5c0,0,0,0,0,0.1c1,1,3.4,3.8,3.6,5.3
		C92.7,25.4,89.3,26.6,85.9,26.5"/>
	<path class="st10" d="M85.4,0.8c0.5,1.2,2,0.9,2.6,1.6c0.7,0.7,1.6,4.3-0.1,5.4c-0.8,0.6-0.7,0.5-0.7,1.4c0,1.5,1.9,1.2,2.7,0.5
		c1.1-1,1.4-2,1-3.4c-0.1-0.2-0.1-0.4-0.1-0.5c0.1-1.2-0.2-1.5-0.9-2.8c-1.1-1.8-2.5-3.4-4.2-3.2C82.5,0.4,80.7,2,81,5.1
		c0.1,1.8-1.1,3.1,2.1,4.4c1.4,0.6,3.6-1.4,1.7-1.4c-2.1,0-2.4-2.7-2.4-4.4C82.3,1.7,85.9,2.1,85.4,0.8"/>
	<path class="st2" d="M94,15.1c0.7,0.8,1.4,1.8,2.2,2.8c0.9,1.2,0.4,1.5-0.1,0.9c-0.3-0.3-1.7-1.7-3-3C93.4,15.7,93.7,15.4,94,15.1"
		/>
	<path class="st2" d="M78.2,14.9c-0.7,0.8-1.5,1.8-2.4,2.8c-1,1.1-0.4,1.5,0.1,1c0.4-0.3,1.8-1.7,3.1-3
		C78.8,15.4,78.4,15.1,78.2,14.9"/>
	<path class="st1" d="M30.8,16.1c2.3-1.8,5.4-1.6,7.1,0.5c1.5,1.9,1.3,4.5-0.3,6.4c0.2,0.4,0.5,0.6,0.7,0.7c0.3,0.1,1.3-1,1.9-1.1
		c0.7-0.2,2.2,0.5,4.3,1c0.6,0.1,4.3,1.3,6.7,1.7c2.5,0.4,2.2,0.9,1,0.9c-3.1,0.1-5.8-0.8-9-0.9c-0.6,0-0.4,0.3-0.2,0.8
		c0.7,1.4,1.4,2.6,2.5,3.8c0.1,0.1,0.5,0.5,1.1,1L57.5,39c-1.1,0.6-2.1,1.3-3.2,2c-2.9-2.3-6.1-4.9-8.9-7.1
		c-0.6-0.5-0.8-0.3-0.4,0.4c1.5,3.2,3.3,6.9,4.9,10.3c-0.9,0.8-1.8,1.7-2.7,2.6L41.4,35c-0.4-0.7-0.6-1.1-0.7-1.3
		c-0.9-1.3-1.9-2.3-3.1-3.3c-0.4-0.3-0.7-0.6-0.8,0c-0.5,3.1-0.3,5.9-1.1,8.9c-0.3,1.1-0.8,1.3-0.6-1.2c0.2-2.4-0.1-6.3-0.1-6.9
		c0.1-2.2-0.3-3.7,0-4.4c0.3-0.6,1.6-1.3,1.5-1.6c0-0.3-0.2-0.6-0.5-0.9c-2.2,1.2-4.8,0.8-6.3-1.1C28,21.1,28.5,17.9,30.8,16.1"/>
	<path class="st9" d="M34.6,21.9c0.6,0,1.2-0.3,1.7-0.7l0,0l0,0l0,0l0,0l0,0c0.5-0.4,0.8-0.9,1-1.5c0.1-0.3,0.2-0.2,0.1,0
		c-0.1,0.6-0.5,1.2-1,1.6l0,0c-0.5,0.5-1.2,0.8-1.8,0.8C34.4,22,34.3,21.9,34.6,21.9"/>
	<path class="st9" d="M32.2,20C32,20,32,20.2,32.1,20.4c0.1,0.2,0.3,0.3,0.5,0.2c0.2-0.1,0.2-0.3,0.1-0.5C32.5,20,32.3,19.9,32.2,20
		"/>
	<path class="st9" d="M35.7,16.8c-0.1,0.1-0.1,0.3,0.1,0.5c0.2,0.1,0.4,0.2,0.5,0c0.1-0.1,0.1-0.3-0.1-0.5
		C36.1,16.7,35.8,16.7,35.7,16.8"/>
	<path class="st0" d="M57.6,1.8c2.8-0.9,5.6,0.5,6.5,3.1c0.7,2.3-0.4,4.7-2.6,5.8c0.1,0.4,0.2,0.8,0.4,0.9c0.3,0.2,1.6-0.5,2.2-0.4
		c0.7,0.1,1.9,1.3,3.7,2.4c0.5,0.3,3.6,2.8,5.7,3.9c2.2,1.3,1.7,1.6,0.6,1.2c-2.9-1-5.1-2.8-8-4.1c-0.5-0.2-0.5,0.2-0.4,0.7
		c0.2,1.5,0.4,3,1,4.4c0.1,0.2,0.3,0.6,0.7,1.3l7,11.6c-1.2,0.2-2.5,0.5-3.7,0.8c-1.9-3.2-4-6.7-5.8-9.9c-0.4-0.6-0.6-0.5-0.5,0.2
		c0.3,3.6,0.6,7.7,0.9,11.4c-1.2,0.4-2.3,0.9-3.5,1.4l-0.9-13.4c-0.1-0.8-0.2-1.3-0.2-1.5c-0.3-1.5-1-2.9-1.7-4.2
		c-0.3-0.5-0.5-0.8-0.8-0.3c-1.6,2.7-2.4,5.4-4.2,8c-0.7,0.9-1.3,0.9-0.2-1.4c1-2.2,2.1-5.9,2.4-6.5c0.8-2,1.1-3.6,1.6-4.1
		c0.5-0.4,1.9-0.6,2-1c0.1-0.3,0-0.6-0.2-1c-2.4,0.3-4.8-1-5.5-3.3C53.3,5.4,54.9,2.6,57.6,1.8"/>
	<path class="st9" d="M59.1,8.2c0.6,0.2,1.2,0.1,1.8-0.1l0,0l0,0l0,0l0,0l0,0c0.6-0.2,1.1-0.6,1.4-1.1c0.2-0.3,0.2-0.1,0.1,0.1
		C62.3,7.6,61.7,8,61,8.2l0,0c-0.7,0.2-1.4,0.3-2,0.1C58.9,8.3,58.8,8.1,59.1,8.2"/>
	<path class="st9" d="M57.5,5.5c-0.2,0-0.3,0.2-0.3,0.4c0,0.2,0.2,0.4,0.3,0.4c0.2,0,0.3-0.2,0.3-0.4C57.9,5.7,57.7,5.5,57.5,5.5"/>
	<path class="st9" d="M62,3.9c-0.2,0.1-0.2,0.3-0.1,0.5c0.1,0.2,0.3,0.3,0.5,0.2c0.2-0.1,0.2-0.3,0.1-0.5C62.3,3.9,62.1,3.8,62,3.9"
		/>
	<path class="st2" d="M15.5,46c0.1-0.2,0.5,0.1,1.1,0c1.7-0.2,2.5-1.4,2.7-1.4c0.5,0.1,1,0.6,1.2,0.8c1.3-0.2,1.8-2,1.6-2.5
		c-0.5-0.1-1.3-0.3-1.4-0.8c-0.1-0.4,0.9-1.6-0.4-3.7c-0.1-0.1-0.3-0.3-0.3-0.4c0.6,0-0.8-2.7-1.6-1.4c0.3,1.3,0,0.3-1.5,0.5
		c-3.9,0.6-5.7,3.1-4,6.8c0.6,1.4,1.7,0.8,0.4,1.2C12.5,46.4,16,46.8,15.5,46"/>
	<path class="st4" d="M20.4,46.3c0.2-0.3,0.1-0.6,0.1-0.9c1.3-0.2,1.8-2,1.6-2.5c0.3-0.2,0.5-0.3,0.6-0.5c0,0.2,0.1,0.5,0.2,0.7
		c0.5,1.7-0.8,2.9-2.2,3C20.5,46.2,20.5,46.3,20.4,46.3"/>
	<path class="st2" d="M23.2,52.2c0.7,2.2,1,2.5,1.7,4.7c0.2,0.7-0.3,1-0.9-0.3c-0.8-1.7-0.9-1.8-1.7-3.5L23.2,52.2z"/>
	<path class="st4" d="M22.6,49.6c0.2,1,0.4,1.9,0.7,2.7l0,0l-1,0.9l0,0c-0.7-1.4-1.5-2.9-2.2-4.5c-0.2-0.8-0.7-1.6,0-2.1
		c0,0.2,0.1,0.3,0.5,0.6C21.2,47.8,22,48.5,22.6,49.6C22.5,49.5,22.5,49.6,22.6,49.6"/>
	<path class="st4" d="M29.6,42.4c-1.2,0.3-2.3,0.6-3.3,0.8c-1.1-0.1-2.8-1.1-3.4-1c0.2-0.4,0.1-0.6,0.8-0.6c1.5-0.1,4.1-0.2,6.3-0.5
		L29.6,42.4z"/>
	<path class="st1" d="M12.9,39.4c-0.4,2.2,2.1,6,1.6,6.8c-0.4,0.7-1,0.3-0.8,0.7c1.1,1.5,1.6,3.2,0.6,4.8c-0.5,0.8-0.4-0.3-0.9-1.2
		c-0.7-1.1-4.2-3.9-1.4-5.2c0.1,0,0.2,0,0.2,0.1c-3.8-6.2,2.2-10.6,5.9-10.1c0.2,0,0.7,0,0.9-0.1c1-1.1,2.3-1.6,3.8-1.4
		c0,0,0.1,0,0.1,0c0.5,0.1,1.6-0.3,1.6,0.1c0,2.2-2.6,2.6-4.3,2.4c-0.5-0.1-0.9-0.4-0.7,0.5C19.4,37.2,15.1,39.3,12.9,39.4"/>
	<path class="st3" d="M17.6,43.7c0.4-0.2,0.8-0.6,1.1-1.1l0,0l0,0l0,0l0,0l0,0c0.3-0.5,0.4-1,0.3-1.5c0-0.3,0.1-0.2,0.1,0
		c0.1,0.5,0,1.1-0.3,1.6l0,0c-0.3,0.5-0.7,1-1.2,1.1C17.5,43.9,17.4,43.8,17.6,43.7"/>
	<path class="st1" d="M26.6,50.9c-0.8-0.4-4.2-1.3-4.1-1.4c-0.5-1-1.2-1.7-2-2.3c-0.7-0.6-0.6-0.7,0.1-1c1.4-0.1,2.8-1.3,2.2-3
		c-0.1-0.4-0.3-0.8-0.1-1c0.4-0.3,2.4,0.9,3.5,1c0.4,0.4,2.6,2.5,3.5,2.9c0,0-0.1,0-0.1,0C29.2,48.5,27.5,49.3,26.6,50.9
		C26.6,50.8,26.6,50.8,26.6,50.9C26.6,50.9,26.6,50.9,26.6,50.9"/>
	<path class="st3" d="M15.2,42.9c-0.1,0.1-0.1,0.3,0.1,0.4c0.1,0.1,0.3,0.1,0.4,0c0.1-0.1,0.1-0.3-0.1-0.4
		C15.5,42.8,15.3,42.8,15.2,42.9"/>
	<path class="st3" d="M17,39.4c-0.1,0.1,0,0.3,0.2,0.4c0.2,0.1,0.4,0,0.4-0.1c0.1-0.1,0-0.3-0.2-0.4C17.3,39.3,17.1,39.3,17,39.4"/>
	<path class="st11" d="M11.6,43c-0.6-2.5,0.3-6,4.7-6.9c0.1,0,0.1,0.1-0.1,0.3c-1.4,0.4-2.6,1.1-3.5,2.4c0,0,0,0,0,0.1
		c-0.8,1.3-1,2.7-0.8,4c0,0-0.1,0-0.1,0.1C11.7,43,11.6,43,11.6,43"/>
	<path class="st0" d="M26,45.4c0.1,0,0.2-0.1,0.3-0.1c0.5-0.1,0.9,0.1,1.3,0.2c0.9,0.4,1,0.9,0.7,1.8C26.9,49.9,23.5,46.6,26,45.4
		 M26.6,45.2c0.4-0.2,0.9-0.4,0.7-0.9c-0.1-0.2-0.3-0.2-0.5-0.2C25.9,44.3,26.2,44.9,26.6,45.2z M24.9,46.2
		c-0.9-0.3-0.5-0.8-0.2-1.2c0,0,0,0,0,0C25.7,45.3,25.7,45.4,24.9,46.2L24.9,46.2z M25.2,47.5c0,0.4-0.1,0.9-0.6,0.9
		c-0.2,0-0.3-0.2-0.4-0.4C24,47.3,24.8,47.3,25.2,47.5z M26.3,48.4c0.7,0.2,1.6,0.2,0.4,1.1C26.7,49.4,26,49.2,26.3,48.4z
		 M28.4,46.1C28.4,46.1,28.4,46.1,28.4,46.1C29.8,48.4,29.5,44.4,28.4,46.1z"/>
	<path class="st12" d="M39.1,49.6c1.6,0.6,3.4,1.2,4.9,1.7c-0.5,0.6-1,1.3-1.4,2c-1.4-0.4-2.9-0.9-4.2-1.3
		C38.6,51.2,38.9,50.4,39.1,49.6"/>
	<path class="st12" d="M33.9,57.4c1.4,1.2,3,2.6,4.2,3.7c0.3-0.7,0.7-1.4,1-2.1c-1-1-2.2-2.2-3.4-3.2C35.2,56.4,34.5,56.9,33.9,57.4
		"/>
	<path class="st13" d="M28.6,58.5c-1.6-1.2-1.5-6.2-2.1-7.7c0,0,0,0,0-0.1c0,0,0,0,0,0c0.9-1.5,2.8-2.2,3-4.7c2-0.2,4.5-1.2,6.4-1.4
		c1.2-0.1,2-0.2,2.3,0.3C42.1,50,33.6,60.9,28.6,58.5"/>
	<path class="st4" d="M9.6,44.6C9.6,44.6,9.6,44.5,9.6,44.6c-0.1-0.7,0-1.3,0.4-1.5c0.5-0.2,1.5,0,1.7-0.1c0.4-0.4,0.7,0.2,0.8,0.9
		l0,0.1C12.2,44,11.4,44.3,9.6,44.6"/>
	<path class="st1" d="M12.2,45.5c-0.5-0.1-0.5,0-1,0.2c-0.4,0.2-0.7,0.2-1,0.1c-0.3-0.2-0.6-0.7-0.7-1.2c1.9-0.3,2.6-0.5,2.9-0.7
		C12.7,44.7,12.6,45.6,12.2,45.5"/>
	<path class="st0" d="M16.3,33.7C16.3,33.7,16.3,33.7,16.3,33.7c-0.6,0.3-1.1,0.7-1,1.2c0.1,0.5,0.8,1.3,0.8,1.5
		c-0.1,0.5,0.5,0.5,1.2,0.2l0.1,0C17.3,36.2,17.1,35.4,16.3,33.7"/>
	<path class="st13" d="M18.5,35.4c-0.4-0.4-0.3-0.4-0.3-0.9c-0.1-0.5-0.2-0.7-0.4-0.9c-0.3-0.2-0.9-0.1-1.3,0.1
		c0.7,1.7,0.9,2.5,1,2.8C18.1,36.2,18.8,35.7,18.5,35.4"/>
	<path class="st2" d="M33.7,40.3c1.5-0.2,1.5,0.4,0.8,0.6c-1.7,0.5-3.2,1.1-4.9,1.5l0,0l0.4-1.4l0,0C31.4,40.9,32.4,40.5,33.7,40.3"
		/>
	<path class="st4" d="M115.4,3.4c-2.6-1.1-5.6,0.1-6.6,2.5c-0.9,2.2,0.1,4.6,2.1,5.9c-0.1,0.4-0.3,0.7-0.5,0.9
		c-0.3,0.2-1.5-0.6-2.1-0.5c-0.7,0.1-1.9,1.1-3.8,2.1c-0.5,0.3-3.7,2.4-5.9,3.4c-2.3,1.1-1.8,1.4-0.7,1.1c3-0.8,5.3-2.4,8.2-3.4
		c0.5-0.2,0.5,0.2,0.4,0.7c-0.3,1.5-0.6,2.9-1.3,4.3c-0.1,0.2-0.4,0.6-0.7,1.3l-8,11.1c1.2,0.3,2.4,0.6,3.6,1
		c2.2-3.1,4.6-6.5,6.7-9.5c0.4-0.6,0.6-0.5,0.5,0.2c-0.6,3.6-1.2,7.7-1.8,11.4c1.1,0.5,2.2,1.1,3.3,1.7l2-13.4
		c0.2-0.7,0.3-1.2,0.3-1.4c0.4-1.5,1.2-2.7,2-4c0.3-0.4,0.5-0.7,0.8-0.2c1.4,2.8,1.9,5.5,3.5,8.1c0.6,1,1.2,1,0.3-1.3
		c-0.8-2.2-1.6-6-1.8-6.6c-0.7-2-0.8-3.6-1.3-4.2c-0.4-0.5-1.8-0.8-1.9-1.1c-0.1-0.3,0-0.6,0.3-1c2.4,0.5,4.8-0.6,5.6-2.8
		C119.4,7.3,118.1,4.4,115.4,3.4"/>
	<path class="st9" d="M114.2,10.4c-0.6,0.1-1.2,0-1.8-0.2l0,0l0,0l0,0l0,0l0,0c-0.6-0.3-1.1-0.7-1.3-1.2c-0.2-0.3-0.2-0.1-0.1,0.1
		c0.2,0.5,0.8,1,1.4,1.3l0,0c0.6,0.3,1.3,0.4,1.9,0.2C114.4,10.4,114.5,10.3,114.2,10.4"/>
	<path class="st9" d="M115.9,7.9c0.2,0,0.3,0.2,0.2,0.4c0,0.2-0.2,0.4-0.4,0.3c-0.2,0-0.3-0.2-0.2-0.4C115.6,8,115.8,7.8,115.9,7.9"
		/>
	<path class="st9" d="M111.7,5.9c0.1,0.1,0.2,0.3,0.1,0.5c-0.1,0.2-0.3,0.3-0.5,0.2c-0.1-0.1-0.2-0.3-0.1-0.5
		C111.4,5.9,111.6,5.8,111.7,5.9"/>
	<path class="st2" d="M133.1,37l0,0.3c0,0.5,0,0.9,0,1.4c0,1.5-0.6,1.4-0.7,0.6c0-0.3-0.1-1-0.1-1.8l0-0.4
		C132.5,37.1,132.8,37.1,133.1,37"/>
	<path class="st5" d="M121.2,26.5L121.2,26.5c2.9-0.5,5-1,6.3-1.2c0.5-0.1,1.3-0.1,1.8,0c0.7,0.2,0.9,0.7,1.7,0.5
		c0.4,0.7,0.6,1.1,1.5,1.2c-0.2,0.9,0.3,0.8,0.6,1.5c0.2,0.4,0.3,1.2,0.3,1.8c0,1.4-0.1,3.7-0.2,6.7c-0.3,0-0.6,0-0.9,0.1
		c-0.2-2.1-0.4-5.1-0.4-5.6c0-0.3-0.2-0.3-0.5-0.1l-0.2-1.8l-1.4-1.1l-1.3-1.2l-1.8,0c0.2-0.3,0.2-0.5-0.1-0.5c-0.4,0-2.9,0.2-5,0.4
		l-0.2,0C121.3,27.1,121.2,26.8,121.2,26.5"/>
	<path class="st2" d="M119.2,26.8c0.7-0.1,1.3-0.2,2-0.4c0,0.3,0.1,0.6,0.1,1c-1.2,0.1-2.3,0.2-2.6,0.2
		C117.9,27.7,117.7,27.1,119.2,26.8"/>
	<polygon class="st1" points="128.5,34.4 131.3,31.7 131.1,29.8 129.7,28.6 128.4,27.5 126.4,27.5 124.2,30.7 	"/>
	<polygon class="st7" points="129.9,25.6 130.4,25.9 127.5,28.5 127,28 	"/>
	<polygon class="st7" points="132.7,27.9 132.3,27.5 130.1,30.8 130.7,31.2 	"/>
	<path class="st14" d="M126.8,28.7c1.1,1.2,1.8,1.9,3.2,2.7l-0.8,1c-0.5,0.5-1.3,0.6-1.8,0.1l-1.2-1.1c-0.5-0.5-0.6-1.3-0.1-1.8
		L126.8,28.7z"/>
	<path class="st6" d="M124.2,30.7l4.3,3.7l-2.6,6.8c-0.1,0.3-0.3,0.5-0.6,0.5c-0.3,0.1-0.6,0-0.8-0.1c-2.6-1.8-4.7-3.6-6.9-5.9
		c-0.2-0.2-0.3-0.5-0.2-0.8c0-0.3,0.2-0.5,0.5-0.7L124.2,30.7z"/>
	<path class="st4" d="M122,32.9c1.6,1.7,2.8,2.7,4.7,4l-0.8,1c-0.5,0.5-1.5,0.4-2.3-0.3l-1.8-1.6c-0.8-0.7-1.1-1.7-0.6-2.2L122,32.9
		z"/>
	<path class="st14" d="M122.6,35.5c0,0.1,0,0.2,0,0.3c0,0.4-0.2,0.7-0.4,1c-0.5,0.7-0.9,0.7-1.6,0.3C118.7,35.5,122,33.2,122.6,35.5
		 M122.7,36c0.1,0.4,0.2,0.8,0.6,0.7c0.2,0,0.2-0.2,0.2-0.4C123.5,35.5,123,35.7,122.7,36z M122.1,34.4c0.4-0.7,0.7-0.3,1,0
		c0,0,0,0,0,0C122.8,35.2,122.7,35.2,122.1,34.4L122.1,34.4z M121,34.5c-0.3-0.1-0.7-0.2-0.6-0.7c0-0.2,0.2-0.3,0.4-0.3
		C121.4,33.5,121.3,34.1,121,34.5z M120.1,35.2c-0.3,0.5-0.5,1.3-1,0.1C119.2,35.4,119.5,34.9,120.1,35.2z M121.6,37.3
		C121.6,37.3,121.6,37.3,121.6,37.3C119.5,38.1,122.9,38.5,121.6,37.3z"/>
	<path class="st14" d="M120.2,38.2c-1.6,1.3-3.3,2.6-4.9,3.9c-0.8-0.6-1.5-1.2-2.3-1.7l5.2-4.1C118.9,37,119.5,37.6,120.2,38.2"/>
	<path class="st8" d="M123.9,41.2l-3.3,5.8c-0.7-0.7-1.3-1.4-2.1-2l3.1-5.4C122.4,40.1,123.1,40.6,123.9,41.2"/>
	<path class="st2" d="M130.8,21.5c0.1,0.2-0.1,0.4-0.2,0.9c-0.1,1.5,0.9,2.7,0.9,2.8c-0.1,0.2-0.3,0.4-0.6,0.6
		c0.4,0.7,0.6,1,1.4,1.2c0,0,0,0,0,0c0.1-0.3,0.3-0.5,0.5-0.5c0.3,0,1.4,1.1,3.5,0.4c0.1,0,0.3-0.2,0.4-0.2
		c-0.1,0.5,2.4-0.2,1.4-1.1c-0.5,0-0.6,0-0.6-0.1c1-2.8-2.9-6.8-5.7-5.2c-0.1,0,0,0-0.1-0.5C131,18.9,130,21.9,130.8,21.5"/>
	<path class="st3" d="M132.3,23.7c0.1,0.4,0.4,0.8,0.8,1.2l0,0l0,0l0,0l0,0l0,0c0.4,0.3,0.8,0.5,1.3,0.6c0.2,0,0.2,0.1,0,0.1
		c-0.4,0-1-0.3-1.4-0.6l0,0c-0.4-0.3-0.7-0.8-0.8-1.3C132.2,23.5,132.3,23.4,132.3,23.7"/>
	<path class="st3" d="M133.3,21.7c-0.1-0.1-0.2-0.1-0.4,0c-0.1,0.1-0.2,0.3-0.1,0.4c0.1,0.1,0.2,0.1,0.4,0
		C133.3,21.9,133.3,21.8,133.3,21.7"/>
	<path class="st3" d="M136.4,24.3c-0.1-0.1-0.3,0-0.3,0.1c-0.1,0.1-0.1,0.3,0.1,0.4c0.1,0.1,0.3,0,0.3-0.1
		C136.5,24.6,136.5,24.4,136.4,24.3"/>
	<path class="st1" d="M131.2,19.3c-0.4,0.7-0.8,1.5-0.6,1.7c0.1,0.1,0.7-0.8,0.8-0.6c0,0.3-0.5,1,1.4-0.2c1.3-0.8,3.6,1,4.7,3.2
		c0.1,0.3,0.6,0.3-0.2,2.2c-0.3,0.7,0.6,0.5,0.9,0.4c0.6-0.2-0.1,0.7,0.1,0.5c1.8-1.5,1.4-3.9-0.1-5.4c-0.9-0.9-2-1.9-3-2.4
		C134,18.2,131.8,18.3,131.2,19.3"/>
	<path class="st15" d="M130.6,22.9c-0.6-1.1-1.8-1.4-0.6-3.2c0.9-1.3,0.6-3.3,1.6-3.2c4.2,0.4,3.4-1.7,7,1.4
		c2.7,2.3,2.9,1.7,2.7,5.8c-0.1,1.2-1.4,2.9-2.1,4.1c-0.4,0.8-2.3,0.3-4.1-0.7c0.4,0,0.8-0.1,1.3-0.2c0.1,0,0.3-0.2,0.4-0.2
		c-0.1,0.3,0.8,0.2,1.3-0.2c0,0,0,0,0,0l0,0c0,0,0.1-0.1,0.1-0.1c1.6-1.5,1.2-3.8-0.2-5.3c-0.9-0.9-2-1.9-3-2.4
		c-1-0.5-3.2-0.4-3.9,0.7c-0.4,0.7-0.8,1.5-0.6,1.7l0,0c-0.1,0.4,0,0.6,0.3,0.5c0.1,0.2-0.1,0.4-0.2,0.9
		C130.6,22.6,130.6,22.8,130.6,22.9"/>
	<path class="st5" d="M140.4,25.9c-0.4,0.7-0.9,1.3-1.2,1.9c-0.1,0.1-0.2,0.2-0.3,0.3c0,0-0.1-0.1-0.1-0.1c-0.1-0.1-0.6-0.4-0.2-0.6
		c0.2-0.1,0.7-0.2,0.7-0.5c0-0.2,0.1-0.3,0.3-0.5c0.2-0.3,0.4-0.5,0.7-0.7C140.5,25.7,140.6,25.6,140.4,25.9"/>
	<path class="st5" d="M130.5,18.7c0.4-1.1,0.4-2.3,1.2-2.2c0.9,0.1,1.6,0.1,2.1,0c-0.6,0.2-1.1,0.5-1.6,0.6c-0.9,0.2-0.5,0.7-0.8,1
		c-0.2,0.3-0.4,0.4-0.7,0.6C130.6,18.7,130.6,18.7,130.5,18.7"/>
	<path class="st5" d="M135.7,16.9c-0.5-0.1-0.8-0.3-1.1,0.2c-0.1,0.1-0.1,0.3,0,0.4c0.3,0.4,0.5,0.5,1,0.3c0.3-0.1,0.7,0.2,0.9-0.1
		C137.4,16.6,136,17,135.7,16.9"/>
	<path class="st5" d="M139.9,22.2c0,0.3,0.2,0.5,0.1,0.7c-0.1,0.5,0.5,0.1,0.6,0c0.3-0.3,0.4-0.7,0.3-1.1c0-0.2-0.1-0.4-0.3-0.5
		c-0.3-0.2-0.4-0.7-0.6-0.6C139.7,20.8,139.9,21.7,139.9,22.2"/>
	<path class="st14" d="M157.4,39.3c-1.4-2.5-4.5-3.4-6.8-2.1c-2.1,1.2-2.9,3.8-2,6.1c-0.3,0.3-0.7,0.4-1,0.4c-0.3,0-0.8-1.4-1.4-1.8
		c-0.6-0.4-2.2-0.3-4.4-0.7c-0.6-0.1-4.5-0.4-6.9-0.9c-2.5-0.6-2.3,0-1.3,0.5c2.9,1.2,5.7,1.4,8.7,2.4c0.5,0.2,0.3,0.5-0.1,0.8
		c-1.2,1-2.3,1.9-3.7,2.6c-0.2,0.1-0.7,0.3-1.4,0.5L124,50.9c0.8,1,1.5,2,2.2,3.1c3.6-1.1,7.5-2.3,11-3.4c0.7-0.2,0.8,0,0.3,0.5
		c-2.6,2.5-5.7,5.3-8.4,7.9c0.6,1.1,1.1,2.3,1.6,3.4l9.8-9.4c0.6-0.5,1-0.8,1.2-0.9c1.3-0.9,2.6-1.5,4.1-2c0.5-0.2,0.9-0.3,0.8,0.3
		c-0.6,3.1-1.9,5.6-2.3,8.7c-0.1,1.1,0.3,1.6,1-0.9c0.7-2.3,2.4-5.8,2.6-6.4c0.7-2,1.6-3.4,1.6-4.1c0-0.6-1-1.7-0.8-2.1
		c0.1-0.2,0.4-0.5,0.8-0.6c1.6,1.9,4.2,2.5,6.3,1.3C158.1,44.9,158.8,41.8,157.4,39.3"/>
	<path class="st9" d="M152.1,44.3c-0.5-0.3-1-0.7-1.3-1.3l0,0l0,0l0,0l0,0l0,0c-0.3-0.6-0.4-1.2-0.3-1.8c0-0.3-0.1-0.2-0.2,0
		c-0.1,0.6,0,1.3,0.4,1.9l0,0c0.3,0.6,0.8,1.2,1.4,1.4C152.2,44.5,152.4,44.4,152.1,44.3"/>
	<path class="st9" d="M155.1,43.4c0.1,0.1,0.1,0.3-0.1,0.5c-0.2,0.1-0.4,0.2-0.5,0c-0.1-0.1-0.1-0.3,0.1-0.5
		C154.7,43.3,154.9,43.3,155.1,43.4"/>
	<path class="st9" d="M152.9,39.2c0.1,0.2-0.1,0.4-0.3,0.4c-0.2,0.1-0.4,0-0.5-0.1c-0.1-0.2,0.1-0.4,0.3-0.4
		C152.6,39,152.8,39.1,152.9,39.2"/>
	<path class="st1" d="M167.7,95.2c0.5-2.9-1.3-5.5-4-5.9c-2.3-0.4-4.6,1.1-5.4,3.4c-0.4,0-0.8-0.1-1-0.3c-0.2-0.2,0.2-1.6,0.1-2.2
		c-0.2-0.7-1.5-1.7-2.9-3.3c-0.4-0.5-3.3-3.2-4.7-5.1c-1.6-2-1.8-1.5-1.3-0.5c1.4,2.8,3.5,4.7,5.2,7.4c0.3,0.5-0.1,0.5-0.6,0.5
		c-1.5,0.1-3,0-4.5-0.4c-0.2,0-0.7-0.2-1.4-0.5l-12.6-5.3c0,1.3-0.1,2.5-0.2,3.8c3.5,1.4,7.3,3,10.7,4.4c0.7,0.3,0.6,0.5-0.1,0.6
		c-3.6,0.2-7.7,0.5-11.5,0.8c-0.3,1.2-0.6,2.4-0.9,3.6l13.5-1c0.8,0,1.3,0,1.5,0c1.6,0.1,3,0.5,4.4,1.1c0.5,0.2,0.8,0.3,0.4,0.7
		c-2.5,2-5,3.2-7.3,5.3c-0.8,0.8-0.8,1.4,1.4,0c2-1.3,5.6-3,6.1-3.3c1.9-1.1,3.4-1.6,3.8-2.2c0.4-0.5,0.3-2,0.7-2.1
		c0.2-0.1,0.6-0.1,1,0c0,2.5,1.7,4.6,4,5C164.7,100.1,167.2,98.1,167.7,95.2"/>
	<path class="st9" d="M160.4,95.8c-0.2-0.5-0.3-1.2-0.2-1.8l0,0l0,0l0,0l0,0h0c0.1-0.6,0.4-1.2,0.8-1.6c0.2-0.2,0.1-0.2-0.1-0.1
		c-0.5,0.4-0.8,1-0.9,1.7v0c-0.1,0.7-0.1,1.4,0.2,1.9C160.4,96,160.6,96.1,160.4,95.8"/>
	<path class="st9" d="M163.3,96.9c0,0.2-0.2,0.3-0.4,0.3c-0.2,0-0.4-0.1-0.4-0.3c0-0.2,0.2-0.3,0.4-0.3
		C163.1,96.7,163.3,96.8,163.3,96.9"/>
	<path class="st9" d="M164.3,92.3c-0.1,0.2-0.3,0.2-0.5,0.2c-0.2-0.1-0.3-0.3-0.3-0.4c0.1-0.2,0.3-0.2,0.5-0.2
		C164.2,92,164.4,92.2,164.3,92.3"/>
	<path class="st4" d="M157.1,124.7c1.5-2.5,0.8-5.6-1.6-7c-2-1.2-4.7-0.6-6.3,1.2c-0.4-0.2-0.7-0.4-0.8-0.6
		c-0.1-0.3,0.8-1.4,0.9-2.1c0-0.8-0.8-2.1-1.6-4.1c-0.2-0.6-1.9-4.1-2.6-6.4c-0.7-2.4-1.2-2-1-0.9c0.3,3.1,1.6,5.6,2.2,8.7
		c0.1,0.6-0.3,0.5-0.8,0.3c-1.5-0.5-2.8-1-4.1-2c-0.1-0.1-0.6-0.4-1.1-0.9l-9.8-9.5c-0.5,1.2-1,2.3-1.6,3.4c2.7,2.6,5.7,5.4,8.4,7.9
		c0.5,0.5,0.4,0.7-0.3,0.5c-3.4-1.1-7.4-2.3-11-3.4c-0.7,1-1.4,2.1-2.2,3l13,3.9c0.7,0.3,1.2,0.5,1.4,0.5c1.4,0.7,2.6,1.6,3.7,2.6
		c0.4,0.3,0.7,0.6,0.1,0.8c-3,1-5.8,1.1-8.7,2.3c-1.1,0.4-1.2,1,1.3,0.5c2.3-0.5,6.3-0.8,6.9-0.9c2.1-0.4,3.7-0.3,4.4-0.7
		c0.5-0.3,1-1.7,1.4-1.8c0.3,0,0.6,0.1,1,0.4c-0.9,2.3-0.1,4.9,2,6.1C152.6,128.1,155.6,127.1,157.1,124.7"/>
	<path class="st9" d="M150.2,122.5c0-0.6,0.2-1.2,0.5-1.7l0,0l0,0l0,0l0,0l0,0c0.3-0.5,0.8-1,1.4-1.2c0.3-0.1,0.1-0.2-0.1-0.1
		c-0.6,0.2-1.1,0.7-1.5,1.2l0,0c-0.4,0.6-0.6,1.3-0.5,1.9C150.1,122.8,150.2,122.9,150.2,122.5"/>
	<path class="st9" d="M152.4,124.7c-0.1,0.2-0.3,0.2-0.5,0.2c-0.2-0.1-0.3-0.3-0.3-0.4c0.1-0.2,0.3-0.2,0.5-0.2
		C152.3,124.3,152.5,124.5,152.4,124.7"/>
	<path class="st9" d="M155,120.7c-0.1,0.1-0.3,0.1-0.5,0c-0.2-0.1-0.2-0.4-0.1-0.5c0.1-0.1,0.3-0.1,0.5,0
		C155.1,120.4,155.1,120.6,155,120.7"/>
	<path class="st14" d="M109.7,162.5c2.8-0.9,4.3-3.7,3.5-6.2c-0.7-2.3-3.1-3.6-5.5-3.3c-0.2-0.4-0.3-0.8-0.2-1c0.1-0.3,1.6-0.5,2-1
		c0.5-0.5,0.8-2.1,1.6-4.1c0.2-0.6,1.3-4.3,2.4-6.5c1.1-2.3,0.5-2.3-0.2-1.4c-1.8,2.5-2.6,5.2-4.2,8c-0.3,0.5-0.5,0.2-0.8-0.3
		c-0.7-1.3-1.4-2.7-1.7-4.2c0-0.2-0.1-0.7-0.2-1.5l-0.9-13.6c-1.1,0.5-2.3,1-3.5,1.5c0.3,3.7,0.6,7.8,0.9,11.5
		c0.1,0.7-0.2,0.8-0.5,0.2c-1.8-3.1-3.9-6.7-5.8-9.9c-1.2,0.3-2.4,0.6-3.7,0.8l7,11.6c0.3,0.7,0.6,1.2,0.7,1.3
		c0.6,1.5,0.9,2.9,1,4.4c0.1,0.5,0.1,0.9-0.4,0.7c-2.9-1.3-5.1-3.1-8-4.1c-1.1-0.4-1.6-0.1,0.6,1.2c2.1,1.2,5.2,3.6,5.7,4
		c1.8,1.2,3,2.3,3.7,2.4c0.6,0.1,1.9-0.6,2.2-0.4c0.2,0.2,0.4,0.5,0.4,0.9c-2.2,1.1-3.3,3.6-2.6,5.8
		C104.1,162,107,163.4,109.7,162.5"/>
	<path class="st9" d="M106,156.3c0.4-0.5,0.9-0.8,1.5-1l0,0l0,0l0,0l0,0l0,0c0.6-0.2,1.3-0.2,1.8,0c0.3,0.1,0.2-0.1,0.1-0.1
		c-0.5-0.3-1.3-0.3-1.9-0.1l0,0c-0.7,0.2-1.3,0.6-1.6,1.1C105.8,156.4,105.8,156.6,106,156.3"/>
	<path class="st9" d="M106.2,159.4c-0.1,0.1-0.4,0-0.5-0.2c-0.1-0.2-0.1-0.4,0.1-0.5c0.1-0.1,0.4,0,0.5,0.2
		C106.4,159.1,106.4,159.3,106.2,159.4"/>
	<path class="st9" d="M110.8,158.2c-0.2,0-0.3-0.1-0.4-0.4c0-0.2,0.1-0.4,0.2-0.4c0.2,0,0.3,0.1,0.4,0.4
		C111.1,158,111,158.2,110.8,158.2"/>
	<path class="st2" d="M73,146.8L73,146.8l-0.5-0.7c-0.9-1.2-0.4-1.6,0.2-1c0.2,0.2,0.6,0.7,1.2,1.3l0,0L73,146.8z"/>
	<path class="st4" d="M73.3,147.3L73.3,147.3l-0.4-0.5l0.8-0.3c0.1,0.1,0.2,0.3,0.4,0.4l0,0L73.3,147.3z"/>
	<polygon class="st7" points="73.6,147.6 73.6,147.6 73.3,147.3 74.2,146.9 74.4,147.2 74.4,147.2 	"/>
	<path class="st1" d="M74.3,148.5L74.3,148.5c-0.2-0.3-0.4-0.6-0.7-0.9l0.8-0.5c0.2,0.2,0.4,0.5,0.7,0.8l0,0L74.3,148.5z"/>
	<polygon class="st6" points="74.6,149 74.6,149 74.3,148.5 75.1,148 75.3,148.3 75.4,148.3 	"/>
	<path class="st1" d="M78.9,154.2L78.9,154.2c-0.4-0.3-0.9-0.8-1.2-1.1c-0.7-0.9-1.7-2.3-3.1-4l0.7-0.8c1.1,1.3,2.1,2.5,2.3,2.7
		c0.1,0,0.1,0,0.2,0c0,0,0,0,0.1-0.1L78.9,154.2z"/>
	<path class="st6" d="M84.1,154.5c-0.6,0.2-1,0-1.4,0.5c0,0-0.1,0.1-0.1,0.1c-0.1,0-0.1-0.1-0.2-0.1c-0.7-0.3-1-0.3-1.8,0
		c-0.4-0.8-0.7-0.5-1.5-0.8l0,0c0.3-0.5,0.6-1,1-1.4c0.5-0.5,2.6-0.2,3.1,0.3C83.5,153.6,83.8,154.2,84.1,154.5"/>
	<path class="st4" d="M78.5,145l-5-13.7c1.2,0.3,2.5,0.5,3.7,0.6l3.9,9.7c0.2,0.4,0.7,0.4,0.8,0l2.6-9.2c1.3,0,2.6-0.1,3.9-0.2
		L85,144.9l-0.1,0.4c-1-0.1-2-0.3-2.9-0.3l-2.9-0.1C78.9,144.9,78.7,144.9,78.5,145"/>
	<path class="st1" d="M84.2,145.2c0.3,0,0.5,0.1,0.8,0.1l0,0l-0.1,0.4l0,0.5l0,0.1c-0.2,0-0.5,0-0.8,0L84.2,145.2z"/>
	<path class="st4" d="M83.6,145.1c0.2,0,0.4,0,0.6,0.1l0,0l-0.1,1.3l-0.1,0c-0.2,0-0.4,0-0.5,0L83.6,145.1z"/>
	<path class="st6" d="M82.4,145c0.4,0,0.8,0.1,1.2,0.1l0,0l-0.1,1.4l-0.1,0c-0.4,0-0.7-0.1-1.1-0.1L82.4,145z"/>
	<path class="st1" d="M81.8,145l0.2,0c0.1,0,0.2,0,0.4,0l0,0l-0.1,1.4l-0.1,0c-0.2,0-0.4,0-0.5-0.1L81.8,145z"/>
	<path class="st4" d="M80.8,144.9l1,0l0,0l-0.1,1.3l-0.1,0c-0.3,0-0.7-0.1-0.9-0.1L80.8,144.9z"/>
	<path class="st7" d="M79.9,144.9l0.9,0l0,0l-0.1,1.3l-0.1,0c-0.1,0-0.2,0-0.2,0l-0.6,0L79.9,144.9z"/>
	<polygon class="st1" points="79.2,144.9 79.8,144.9 79.9,144.9 79.8,146.2 79.7,146.2 79.1,146.2 	"/>
	<path class="st6" d="M78.6,146.2L78.6,146.2l0-0.7l-0.1-0.3l-0.1-0.2c0.2-0.1,0.4-0.1,0.6-0.1l0,0l0,0l-0.1,1.3l-0.1,0L78.6,146.2z
		"/>
	<path class="st1" d="M84.9,147.7c-2.2-0.3-4.1-0.3-6.4-0.2c0,0.3,0,0.6,0,0.9l0,0c2.2-0.1,4.2,0,6.4,0.2
		C84.9,148.3,84.9,148,84.9,147.7L84.9,147.7z"/>
	<path class="st4" d="M78.5,148.4c2.2-0.1,4.2,0,6.4,0.2l0,0c0,0.8,0,1.6,0.1,2.4c0,0,0,0.1,0,0.1c0,0.1,0,0.1,0,0.1l-0.9,3.3l0,0
		l0,0c-0.4-0.4-0.6-0.9-0.9-1.3c-0.4-0.5-2.6-0.8-3.1-0.3c-0.4,0.4-0.7,0.9-1,1.4c-0.1,0-0.1-0.1-0.2-0.1l-1-3.3
		C78.3,150.2,78.5,149.3,78.5,148.4"/>
	<path class="st7" d="M78.6,146.6l0-0.5l1.8,0.1c1,0,3.3,0.4,4.5,0.2c0,0.4,0,0.8,0,1.2c-2.2-0.3-4.1-0.3-6.4-0.2l0,0
		c0-0.2,0-0.4,0-0.6L78.6,146.6z"/>
	<path class="st1" d="M88.3,150.4L88.3,150.4c-1.1,1.3-2,2.3-2.6,3c-0.4,0.4-1,1-1.5,1.1c0,0-0.1,0-0.1,0l0.9-3.3
		c0.1,0.1,0.2,0.2,0.3,0c0.2-0.2,1-0.9,1.9-1.8l0,0L88.3,150.4z"/>
	<path class="st7" d="M89,149.6L89,149.6l-0.7,0.8l-0.9-0.9c0.3-0.3,0.6-0.5,0.8-0.8l0,0L89,149.6z"/>
	<polygon class="st1" points="89.3,149.2 89.3,149.2 89,149.6 88.2,148.7 88.5,148.4 88.5,148.4 	"/>
	<polygon class="st6" points="89.7,148.7 89.7,148.8 89.3,149.2 88.5,148.4 88.9,148 88.9,148 	"/>
	<polygon class="st4" points="90.1,148.3 90.1,148.3 89.7,148.7 88.9,148 89.4,147.6 89.4,147.6 	"/>
	<path class="st2" d="M91.4,146.7c-0.5,0.5-0.9,1-1.3,1.5l-0.7-0.7c0.9-0.9,1.7-1.6,2-1.8C91.9,145.2,92.4,145.5,91.4,146.7"/>
	<path class="st2" d="M85.5,158.6c-0.2,0-0.2-0.4-0.5-0.9c-0.8-1.3-2.5-1.5-2.6-1.7c0-0.2,0-0.5,0.1-0.8c-0.8-0.4-1.2-0.5-2-0.1
		c0,0,0,0,0,0c0.1,0.3,0.1,0.6-0.1,0.8c-0.3,0.2-1.9,0-3.1,1.9c-0.1,0.1-0.2,0.5-0.3,0.6c-0.2-0.4-0.7,1.1-0.6,1.5l0-0.1
		c2.5,1.8,5.7,1.7,9.8,0.3C86.3,159.4,85.7,158.1,85.5,158.6"/>
	<path class="st3" d="M83,157.9c-0.4-0.3-1-0.5-1.5-0.5v0l0,0l0,0l0,0v0c-0.6,0-1.1,0.1-1.6,0.5c-0.2,0.2-0.2,0-0.1-0.1
		c0.4-0.4,1-0.5,1.7-0.5h0c0.6,0,1.2,0.2,1.6,0.6C83.2,157.9,83.2,158.1,83,157.9"/>
	<path class="st3" d="M83.5,160.1c-0.1,0-0.2-0.1-0.2-0.3c0-0.2,0.1-0.3,0.2-0.3c0.1,0,0.2,0.1,0.2,0.3
		C83.7,159.9,83.6,160.1,83.5,160.1"/>
	<path class="st3" d="M79.1,159.9c-0.1,0-0.2-0.1-0.3-0.3c0-0.2,0.1-0.3,0.2-0.3c0.1,0,0.2,0.1,0.3,0.3
		C79.3,159.8,79.2,159.9,79.1,159.9"/>
	<path class="st4" d="M78.2,164.2c-0.6-0.4-1-0.9-1.4-1.5c-0.3-0.3-0.3-1.2-0.2-2.7c0.3,0.2,0.6,0.4,0.9,0.5
		C77.3,162,77.6,163.2,78.2,164.2"/>
	<path class="st7" d="M80.5,165c-0.1,0-0.2,0-0.4,0c-0.4,0-0.8-0.1-1.2-0.3c-0.3-0.1-0.6-0.3-0.9-0.4c-0.6-1-0.8-2.2-0.7-3.7
		c0.1,0.1,0.2,0.1,0.3,0.1c0.5,0.2,1,0.4,1.6,0.5C79.6,163.1,79.9,163.9,80.5,165"/>
	<path class="st6" d="M82,165c-0.1,0-0.1,0-0.2,0c-0.3,0-0.7,0-1.1,0c-0.1,0-0.1,0-0.2,0c-0.7-1.1-0.9-1.9-1.2-3.8l0.1,0
		c0.8,0.2,1.7,0.2,2.7,0.1l0.1,0C82.3,162.8,82.2,164.1,82,165"/>
	<path class="st1" d="M83.2,164.8c-0.2,0-0.5,0.1-0.7,0.1c-0.2,0-0.3,0-0.5,0c0.2-0.9,0.3-2.2,0.3-3.7c0.7-0.1,1.4-0.2,2.1-0.4
		c0.1,0,0.2-0.1,0.3-0.1C84.4,162.6,83.8,163.9,83.2,164.8"/>
	<path class="st4" d="M86.4,160.3c0,1.1,0,2.2-0.5,3c-0.6,0.8-1.5,1.3-2.8,1.6c0.7-0.9,1.2-2.3,1.5-4
		C85.3,160.7,85.8,160.5,86.4,160.3"/>
	<path class="st4" d="M76.6,160L76.6,160L76.6,160C76.6,160,76.6,160,76.6,160C76.6,160,76.6,160.1,76.6,160
		C76.5,160.3,76.5,160.2,76.6,160C76.6,160.1,76.6,160.1,76.6,160L76.6,160z M77.3,158.1c-0.8-0.4-3.5,0.2-3.6,1.4
		c-0.1,0.4,1.7-0.1,2.9,0.5c-0.1-0.5,0.4-1.9,0.6-1.5C77.2,158.5,77.3,158.3,77.3,158.1L77.3,158.1z"/>
	<path class="st1" d="M83.6,150.6c-0.5-0.1-1.1-0.3-1.3-0.1c-0.3,0.3,0,1.5,0.4,1.7c0.7,0.4,1.1-0.5,1.3-1.1
		C84,150.6,84,150.7,83.6,150.6"/>
	<path class="st4" d="M52.9,160.7c-2.7-1.1-4-4-3.1-6.5c0.9-2.2,3.3-3.4,5.7-2.9c0.2-0.4,0.3-0.7,0.3-1c-0.1-0.3-1.5-0.6-1.9-1.1
		c-0.5-0.6-0.6-2.2-1.3-4.2c-0.2-0.6-1-4.4-1.9-6.7c-0.9-2.4-0.3-2.3,0.3-1.3c1.6,2.7,2.2,5.4,3.6,8.3c0.3,0.5,0.5,0.2,0.8-0.2
		c0.8-1.3,1.6-2.6,2-4.1c0.1-0.2,0.2-0.7,0.3-1.4l1.9-13.4c1.1,0.6,2.2,1.2,3.3,1.7c-0.6,3.7-1.2,7.8-1.8,11.4
		c-0.1,0.7,0.1,0.8,0.5,0.2c2.1-3,4.4-6.4,6.6-9.5c1.2,0.4,2.4,0.7,3.6,1L64,142c-0.4,0.7-0.7,1.1-0.8,1.3c-0.7,1.4-1.1,2.8-1.3,4.3
		c-0.1,0.5-0.1,0.9,0.4,0.7c3-1.1,5.3-2.7,8.3-3.5c1.1-0.3,1.6,0.1-0.7,1.2c-2.2,1-5.4,3.2-6,3.5c-1.9,1-3.1,2.1-3.9,2.2
		c-0.6,0.1-1.9-0.7-2.2-0.5c-0.2,0.1-0.4,0.5-0.5,0.9c2.1,1.3,3.1,3.8,2.2,6C58.5,160.6,55.6,161.7,52.9,160.7"/>
	<path class="st9" d="M57.1,154.7c-0.3-0.5-0.9-0.9-1.5-1.1l0,0l0,0l0,0l0,0l0,0c-0.6-0.2-1.2-0.3-1.8-0.1c-0.3,0.1-0.2-0.1,0-0.1
		c0.6-0.2,1.3-0.2,1.9,0.1l0,0c0.7,0.2,1.3,0.6,1.6,1.2C57.3,154.8,57.2,155,57.1,154.7"/>
	<path class="st9" d="M56.6,157.8c0.1,0.1,0.4,0,0.5-0.2c0.1-0.2,0.1-0.4,0-0.5c-0.1-0.1-0.4,0-0.5,0.2
		C56.4,157.5,56.5,157.7,56.6,157.8"/>
	<path class="st9" d="M52.1,156.3c0.2,0,0.3-0.1,0.4-0.3c0-0.2,0-0.4-0.2-0.5c-0.2,0-0.3,0.1-0.4,0.3C51.9,156,52,156.2,52.1,156.3"
		/>
	<path class="st1" d="M27,144.5c-2.1-1.9-2.4-5.1-0.6-7.1c1.6-1.8,4.3-2,6.4-0.7c0.3-0.3,0.6-0.6,0.6-0.9c0-0.3-1.2-1.1-1.4-1.7
		c-0.3-0.7,0.2-2.3,0.2-4.4c0-0.6,0.6-4.5,0.6-6.9c0-2.5,0.5-2.3,0.7-1.2c0.6,3.1,0.2,5.8,0.5,9c0.1,0.6,0.4,0.3,0.8,0
		c1.2-0.9,2.4-1.8,3.3-3.1c0.1-0.1,0.4-0.6,0.8-1.2l6.5-11.9c0.8,1,1.7,1.9,2.5,2.8c-1.8,3.3-3.8,6.8-5.6,10
		c-0.4,0.6-0.2,0.8,0.4,0.4c3-2.1,6.4-4.4,9.5-6.5c1,0.8,2,1.5,3,2.3L43.9,131c-0.6,0.5-1,0.8-1.2,0.9c-1.2,1.1-2,2.3-2.8,3.6
		c-0.3,0.4-0.4,0.8,0.1,0.8c3.2,0,5.9-0.7,9-0.4c1.1,0.1,1.5,0.6-1.1,0.8c-2.4,0.2-6.2,1.1-6.8,1.2c-2.1,0.3-3.7,0.9-4.4,0.7
		c-0.6-0.2-1.5-1.3-1.8-1.3c-0.3,0.1-0.6,0.3-0.8,0.7c1.5,1.9,1.5,4.6-0.1,6.4C32.3,146.4,29.1,146.5,27,144.5"/>
	<path class="st9" d="M33,140.5c-0.1-0.6-0.5-1.1-1-1.5l0,0l0,0l0,0l0,0l0,0c-0.5-0.4-1.1-0.7-1.6-0.7c-0.3,0-0.2-0.1,0-0.2
		c0.6,0,1.3,0.3,1.8,0.7l0,0c0.5,0.4,0.9,1,1.1,1.6C33.2,140.6,33.1,140.8,33,140.5"/>
	<path class="st9" d="M31.5,143.2c0.1,0.1,0.3,0.1,0.5,0c0.2-0.1,0.2-0.3,0.1-0.5c-0.1-0.1-0.3-0.1-0.5,0
		C31.5,142.8,31.4,143,31.5,143.2"/>
	<path class="st9" d="M27.8,140.2c0.1,0.1,0.4,0,0.5-0.2c0.1-0.2,0.1-0.4,0-0.5c-0.1-0.1-0.4,0-0.5,0.2
		C27.7,139.8,27.7,140.1,27.8,140.2"/>
	<path class="st2" d="M35.6,102.3c0.5-0.4,1-0.8,1.5-1.2c0.3,0.8,0.6,1.5,1,2.3c-0.3,0.3-0.6,0.5-1,0.8
		C36.7,103.5,36.2,102.8,35.6,102.3 M34.3,103.3L34.3,103.3c0.5,0.5,1.1,1.2,1.6,1.9C35.3,104.5,34.8,103.8,34.3,103.3z"/>
	<path class="st2" d="M37.6,110.9L37.6,110.9L37.6,110.9L37.6,110.9z M37.4,108.5c0,0.1,0,0.2,0.1,0.3
		C37.4,108.6,37.4,108.6,37.4,108.5z M40,110.3c0.6-0.2,1.3-0.3,1.9-0.5c-0.5-0.7-0.9-1.4-1.4-2.2c-0.5,0.1-1,0.2-1.4,0.3
		C39.5,108.7,39.8,109.4,40,110.3z"/>
	<path class="st2" d="M18.8,121.5c-0.1-0.2,0.3-0.3,0.5-0.8c0.7-1.3,0.1-2.8,0.2-3c0.2-0.1,0.5-0.2,0.7-0.3
		c-0.1-0.8-0.2-1.2-0.9-1.7c0,0,0,0,0,0c-0.2,0.2-0.5,0.4-0.7,0.3c-0.3-0.1-0.9-1.6-3.1-1.6c-0.1,0-0.3,0.1-0.5,0
		c0.2-0.3-1.4-0.6-1.8,0c0,0,0,0,0,0.1c-0.1,0.1,0,0.3,0,0.4c0,0,0,0,0,0.1l0,0c0.7,0.3,0.4,3.3,0.4,4.4c0,0.2-0.1,0.4,0.1,0.4
		c1.5,0.7,3.4,2.1,3.4,2.4c0,0.7,0.1,0.5,0.3,0.6c0.2,0.1,0.3,0.1,0.4,0.1c0,0,0.1,0,0.1-0.1c0,0,0,0,0,0
		C18.7,122.4,19.3,121.4,18.8,121.5"/>
	<path class="st3" d="M18,118.8c0.1-0.5,0-0.9-0.2-1.3l0,0l0,0l0,0l0,0l0,0c-0.2-0.4-0.6-0.7-1-0.9c-0.2-0.1-0.1-0.2,0.1-0.1
		c0.5,0.1,0.9,0.5,1.1,0.9l0,0c0.2,0.4,0.3,1,0.2,1.4C18.1,119,17.9,119.1,18,118.8"/>
	<path class="st3" d="M16.6,120.4c0-0.1,0-0.3,0.2-0.3c0.1-0.1,0.3,0,0.4,0.1c0,0.1,0,0.3-0.2,0.3C16.8,120.6,16.6,120.6,16.6,120.4
		"/>
	<path class="st3" d="M14.6,116.8c-0.1-0.1,0-0.3,0.1-0.3c0.1-0.1,0.3-0.1,0.4,0c0.1,0.1,0,0.3-0.1,0.3
		C14.8,116.9,14.7,116.9,14.6,116.8"/>
	<path class="st10" d="M18,122.8L18,122.8L18,122.8L18,122.8L18,122.8L18,122.8L18,122.8L18,122.8L18,122.8L18,122.8L18,122.8
		L18,122.8L18,122.8L18,122.8L18,122.8L18,122.8z M17.4,122.9L17.4,122.9L17.4,122.9L17.4,122.9L17.4,122.9L17.4,122.9L17.4,122.9
		L17.4,122.9L17.4,122.9L17.4,122.9L17.4,122.9L17.4,122.9L17.4,122.9L17.4,122.9L17.4,122.9l0.1,0l0,0l0,0l0,0l0,0c0,0,0.1,0,0.1,0
		l0,0l0,0l0,0h0l0,0c0.2,0,0.3,0,0.3-0.1l0,0l0,0c0,0,0,0,0,0l0,0l0,0l0,0l0,0l0,0l0,0l0,0l0,0l0,0l0,0l0,0l0,0l0,0l0,0l0,0v0l0,0
		l0,0l0,0c-0.1,0.2-0.7,0.7-0.5,0.8c1.4,0.4,1,2.3-0.2,3c-1.2,0.7-3-0.8-2.6-2c0.1-0.3,0.8-0.6,0.6-0.7c-1.4-0.6-2.7-1.7-3.2-3
		c-1.2-1.5-1.1-3.2-0.8-4.2c-0.9-0.1-1.3,0.1-1.8-0.8c-0.2-0.4-0.2-1.5,0.3-2c0.8-0.9,2.8-0.8,2.8,1c0,0.1,0.1,0.1,0.2,0.1
		c0.2-0.2,0.5-0.6,0.5-0.5c0,0,0,0,0,0l0,0l0,0l0,0v0l0,0v0v0l0,0l0,0l0,0l0,0v0v0l0,0l0,0l0,0l0,0l0,0l0,0h0l0,0l0,0v0l0,0l0,0l0,0
		l0,0v0l0,0l0,0l0,0v0l0,0l0,0l0,0l0,0l0,0l0,0l0,0v0l0,0l0,0l0,0l0,0l0,0l0,0l0,0l0,0l0,0l0,0l0,0l0,0l0,0l0,0l0,0l0,0
		c-0.1,0.1,0,0.3,0,0.4c0,0,0,0,0,0.1l0,0c0.1,0,0.1,0.1,0.2,0.1l0,0c0.4,0.7,0.2,3.1,0.2,4.2v0v0l0,0l0,0v0v0l0,0l0,0l0,0l0,0l0,0
		l0,0l0,0l0,0l0,0l0,0l0,0l0,0l0,0l0,0l0,0l0,0l0,0l0,0l0,0l0,0l0,0l0,0l0,0v0l0,0l0,0l0,0l0,0l0,0l0,0l0,0h0l0,0h0l0,0h0l0,0v0l0,0
		l0,0l0,0v0l0,0l0,0v0l0,0v0l0,0l0,0l0,0l0,0h0l0,0v0l0,0l0,0h0l0,0l0,0l0,0l0,0h0l0,0h0l0,0v0l0,0l0,0l0,0h0l0,0h0l0,0l0,0v0l0,0h0
		l0,0l0,0h0l0,0l0,0l0,0l0,0c1.5,0.7,3.4,2.1,3.4,2.4C17.2,123,17.3,122.8,17.4,122.9z"/>
	<path class="st13" d="M25.4,110.9l-3.4,0.9c0,0,0,0.1,0,0.2c-0.6,0.8-1.6,2.3-2.6,2.7l0.1,0.2l3.7-0.2l0,0.1l3.4-1.8L25.4,110.9z"
		/>
	<path class="st7" d="M21.1,118l-0.3-0.3l2.2-3l3.4-1.9l1,1.8l-2.4,2.7c0,0-0.1,0-0.1,0C23.8,117.4,22.1,117.4,21.1,118"/>
	<path class="st2" d="M20.4,110.2c0.6-1.5,1.4-3.3,2.3-5.6c0.6-1.4,1.1-1.1,0.9-0.3c-0.2,0.9-2,6.6-2.2,7.4c0-0.1,0.2-0.6,0.2-0.6
		C21.4,110.9,20.7,110.3,20.4,110.2"/>
	<path class="st6" d="M20.9,117.7c-0.2-0.1-0.3-0.3-0.7-0.3c-0.1-0.8-0.2-1.2-0.9-1.7c0.4-0.5,0.2-0.7,0.1-1.1l0,0l0.1,0.2l3.7-0.2
		L20.9,117.7L20.9,117.7L20.9,117.7z"/>
	<path class="st2" d="M31.5,120.8c-2.4-0.5-4.5-0.9-6-1.2c0.1-0.2,0-1.2,0-1.5c1.7,0.5,6.1,1.8,6.8,2.1
		C33,120.5,33,121.1,31.5,120.8"/>
	<path class="st5" d="M24,121c0.6-0.1,1.2-0.2,1.1-0.7c0-0.3-0.2-0.7,0.3-0.6c0.2,0.1,0-1.3,0-1.6c0-0.1-0.6-0.2-0.6-0.2
		c0.1-0.3,0.5-0.6,0.1-0.5c-1.1,0.1-2.9,0.1-3.8,0.8C20.6,118.4,20.2,121.4,24,121"/>
	<path class="st4" d="M18.4,110.6c0.4-0.5,0.8-0.9,1.2-0.5c0.2,0.2,0.5,0.6,0.7,0.1c0.1-0.2,1.1,0.7,1.3,0.9c0,0-0.2,0.6-0.1,0.6
		c0.3,0.1,0.7-0.1,0.5,0.2c-0.7,0.9-1.7,2.4-2.8,2.8C18.7,114.9,16,113.5,18.4,110.6"/>
	<path class="st1" d="M37.9,113.6c0.7,0,1.5-0.1,2.3-0.2c0.1-2.3-0.3-4.2-1.2-5.6c-0.9-3.1-2.9-5.7-5.9-7.6c-0.4,0.5-0.7,0.9-1,1.4
		c1.3,0.6,2.6,1.8,3.9,3.7c-0.5,0.2-0.7,0.3-0.7,0.4c0.2,0.3,0.6,0.8,0.8,1.5c0.2-0.1,0.4-0.1,0.8-0.2c0.3,0.3,0.5,1,0.7,2.2
		c-0.5,0.1-0.9,0.2-1,0.3c0.5,0.3,0.7,0.8,0.5,1.5c0.2-0.2,0.4-0.2,0.8-0.1C38.1,111.5,38.1,112.4,37.9,113.6"/>
	<path class="st6" d="M35.6,114.6c0.8-4.2-0.7-10.6-5.7-11.4l-4.5,7.7l2,3.8L35.6,114.6z"/>
	<path class="st4" d="M35.7,114.2c0.6,0,1.3-0.1,2.1-0.2c0.3-1.5,0.2-2.5,0-3c-0.3-0.1-0.6,0-0.8,0.1c0.2-0.7,0.1-1.2-0.5-1.5
		c0.1-0.1,0.5-0.2,1-0.3c-0.2-1.2-0.5-1.9-0.7-2.2c-0.3,0.1-0.5,0.1-0.8,0.2c-0.2-0.7-0.5-1.2-0.8-1.5c0-0.1,0.2-0.2,0.7-0.4
		c-1.6-2.3-3.1-3.6-4.6-4c-0.2,0.4-0.5,1-1,1.9C34.9,104.3,36.3,110.1,35.7,114.2"/>
	<path class="st1" d="M32.9,113.1c1.6-0.9,2.5-2.4,1.4-4.8c0-0.1-0.1-0.2-0.1-0.2c-0.5,0.3-1.4,0.9-2.3,1.4
		c-0.7-1.1-1.5-2.1-2.4-2.6c0.8,0.5,1.7,1.5,2.4,2.6C32.7,110.7,33.2,112.2,32.9,113.1"/>
	<path class="st7" d="M29.9,114.1c1-0.2,1.9-0.4,2.7-0.8c0.1-0.1,0.2-0.1,0.4-0.2c0.2-0.9-0.3-2.3-1.1-3.7c-0.4,0.3-0.9,0.5-1.3,0.7
		c-0.7,0.4-1.2,0.7-1.4,0.8l-0.1,0c0.1,0.3,0.3,0.5,0.3,0.7C29.8,112.3,29.8,113.3,29.9,114.1"/>
	<path class="st1" d="M31.9,109.4c-0.4,0.3-0.9,0.5-1.3,0.7c-0.7,0.4-1.2,0.7-1.4,0.8l-0.1,0c-0.4-0.8-1.1-1.9-1.8-2.4
		c0.4-0.5,0.9-0.9,1.4-1.2c0.2-0.2,0.5-0.4,0.7-0.5C30.3,107.4,31.2,108.4,31.9,109.4"/>
	<path class="st7" d="M34.2,108.1c-0.5,0.3-1.4,0.9-2.3,1.4c-0.7-1.1-1.5-2.1-2.4-2.6C31.2,105.8,33,105.8,34.2,108.1L34.2,108.1z"
		/>
	<path class="st1" d="M84,31.2c27.9,0,50.6,22.6,50.6,50.6c0,27.9-22.6,50.6-50.6,50.6c-27.9,0-50.6-22.6-50.6-50.6
		C33.4,53.9,56,31.2,84,31.2"/>
	<path class="st1" d="M27.3,114.4l-0.7-1.2l-0.1-0.2l-0.1-0.1c1.4-0.8,2.2-1.5,2.6-1.9l0.3,0.4c0,0.1,0.1,0.1,0.1,0.2
		c0.4,0.7,0.3,1.6,0.4,2.4c-0.1,0-0.2,0-0.3,0C28.9,114.3,28.1,114.3,27.3,114.4"/>
	<path class="st7" d="M29.1,111c-0.4,0.3-1.2,1.1-2.6,1.9l0,0l0-0.1l-0.1-0.2l-0.1-0.2l-0.8-1.5c0.4-0.5,0.8-1.1,1.3-1.6
		c0.2-0.2,0.4-0.5,0.6-0.7c0.6,0.4,1.2,1.2,1.6,2l0,0C29,110.6,29.1,110.9,29.1,111"/>
	<path class="st16" d="M117.3,78c-0.4,0-0.7-0.1-1-0.4c-0.2-0.3-0.4-0.6-0.4-1.1c0-0.4,0.1-0.8,0.4-1.1c0.2-0.3,0.6-0.4,1-0.4
		c0.4,0,0.7,0.1,1,0.4c0.3,0.3,0.4,0.6,0.4,1.1c0,0.4-0.1,0.8-0.4,1.1C118.1,77.9,117.7,78,117.3,78 M122.2,72.4h-3.5v0.7
		c-0.6-0.6-1.3-0.9-2.3-0.9c-1.2,0-2.1,0.4-2.9,1.2c-0.7,0.8-1.1,1.9-1.1,3.2c0,1.3,0.4,2.4,1.1,3.2c0.7,0.8,1.7,1.2,2.9,1.2
		c0.9,0,1.7-0.3,2.3-0.9v0.7h3.5V72.4z M111,80.6v-8.3h-3.5v8.3H111z M109.2,68.1c-0.6,0-1,0.2-1.4,0.5c-0.4,0.4-0.5,0.8-0.5,1.3
		c0,0.5,0.2,1,0.5,1.3c0.4,0.4,0.8,0.5,1.4,0.5c0.6,0,1-0.2,1.4-0.5c0.4-0.4,0.5-0.8,0.5-1.3c0-0.5-0.2-0.9-0.5-1.3
		C110.3,68.3,109.8,68.1,109.2,68.1z M101.9,81.3l-0.8,2.8h2.4l1.7-2.8H101.9z M103.7,80.9c0.9,0,1.7-0.2,2.5-0.6l-0.6-2.6
		c-0.2,0.1-0.5,0.2-0.9,0.2c-0.3,0-0.5-0.1-0.7-0.2c-0.1-0.1-0.2-0.3-0.2-0.6v-2.1h1.9v-2.7h-1.9v-2.3h-3.5v2.3h-1v2.7h1v2.5
		c0,1,0.3,1.8,0.9,2.4C101.8,80.6,102.6,80.9,103.7,80.9z M93.4,78c-0.4,0-0.7-0.1-1-0.4c-0.2-0.3-0.4-0.6-0.4-1.1
		c0-0.4,0.1-0.8,0.4-1.1c0.2-0.3,0.6-0.4,1-0.4c0.4,0,0.7,0.1,1,0.4s0.4,0.6,0.4,1.1c0,0.4-0.1,0.8-0.4,1.1
		C94.1,77.9,93.8,78,93.4,78z M98.2,72.4h-3.5v0.7c-0.6-0.6-1.3-0.9-2.3-0.9c-1.2,0-2.1,0.4-2.9,1.2c-0.7,0.8-1.1,1.9-1.1,3.2
		c0,1.3,0.4,2.4,1.1,3.2c0.7,0.8,1.7,1.2,2.9,1.2c0.9,0,1.7-0.3,2.3-0.9v0.7h3.5V72.4z M82.3,78c-0.4,0-0.7-0.1-1-0.4
		c-0.2-0.3-0.4-0.6-0.4-1.1c0-0.4,0.1-0.8,0.4-1.1c0.2-0.3,0.6-0.4,1-0.4c0.4,0,0.7,0.1,1,0.4c0.3,0.3,0.4,0.6,0.4,1.1
		c0,0.4-0.1,0.8-0.4,1.1C83.1,77.9,82.7,78,82.3,78z M87.2,68.9h-3.5v4.1c-0.6-0.6-1.3-0.9-2.3-0.9c-1.2,0-2.1,0.4-2.9,1.2
		c-0.7,0.8-1.1,1.9-1.1,3.2c0,1.3,0.4,2.4,1.1,3.2c0.7,0.8,1.7,1.2,2.9,1.2c0.9,0,1.7-0.3,2.3-0.9v0.7h3.5V68.9z M73.1,72.1
		c-1,0-1.8,0.4-2.4,1.1v-0.9h-3.5v8.3h3.5v-4.2c0-0.4,0.1-0.7,0.3-0.9c0.2-0.2,0.4-0.3,0.7-0.3c0.3,0,0.5,0.1,0.7,0.3
		c0.2,0.2,0.3,0.4,0.3,0.7v4.4h3.5v-5.1c0-1-0.3-1.9-0.8-2.5C74.8,72.4,74,72.1,73.1,72.1z M65.6,72.4h-3.5v4.2
		c0,0.4-0.1,0.7-0.3,0.9c-0.2,0.2-0.4,0.3-0.7,0.3c-0.3,0-0.5-0.1-0.7-0.3c-0.2-0.2-0.3-0.4-0.3-0.7v-4.4h-3.5v5.1
		c0,1,0.3,1.9,0.8,2.5c0.5,0.6,1.3,0.9,2.2,0.9c1,0,1.8-0.4,2.4-1.1v0.9h3.5V72.4z M49.9,72.8h5.4v-3.1h-9v10.9h3.6v-3.2h4.8v-3.1
		h-4.8V72.8z"/>
	<path class="st13" d="M107.4,91.1c2.1,1.1,3.1,1.8,2.8,2.5c-0.7,1.3-2.5,0.9-3.4,1c-0.4,0-0.5,0.1-0.4,0.5c0.2,1.3,0.1,2.4-0.3,3.1
		c-0.2,0.4-0.5,0.8-1,0.6c-0.3-0.1-0.7-0.5-1-1.1c-0.7-1.2-1.2-1.9-1.5-2c-0.1-0.1-0.3,0-0.4,0c-1.1,0.3-4.6,1.9-3.2-0.8
		c0.3-0.6,0.8-1.3,1.4-2.1c0.5-0.5-1.7-1.9-1.6-2.9c0.1-1.3,1.8-0.9,2.9-0.5c1.4,0.5,1.5-0.2,2.5-1.1c2-1.9,2.5-1.1,2.7,2.2
		C106.9,90.9,107,90.9,107.4,91.1"/>
	<path class="st1" d="M102.7,90.5c0.1,0,0.2,0,0.4,0c0.4-0.1,0.7-0.5,1-0.8c0.5-0.6,1-0.8,1.3-0.7c1,0.4,0.1,2.4,0.8,2.6
		c1.5,0.6,2.2,1.2,2.1,1.8c-0.1,0.6-0.9,0.9-2.3,0.8c-0.2,0-0.3,0.2-0.3,0.4c0.1,1.3-0.1,2.1-0.6,2.4c-0.5,0.1-1.2-0.6-2-2.1
		c-0.1-0.2-0.3-0.2-0.6,0.1c-1.3,0.7-2.1,0.8-2.4,0.2c-0.1-0.4,0.3-1.2,1.2-2.2c0.1-0.2,0.1-0.4-0.2-0.6c-0.9-0.9-1.2-1.5-0.8-2
		C100.7,90.1,101.5,90.1,102.7,90.5"/>
	<path class="st16" d="M103.4,106.1v-8.3h-3.5v8.3H103.4z M98.1,106.1V94.4h-3.5v11.7H98.1z M92.8,97.7c-1.2,0-2.1,0.6-2.6,1.8v-1.7
		h-3.5v8.3h3.5v-2.4c0-0.8,0.2-1.4,0.7-1.7c0.5-0.3,1.1-0.5,1.9-0.5h0.5l0.1-3.7C93.2,97.7,93,97.7,92.8,97.7z M85.1,97.8h-3.5v4.2
		c0,0.4-0.1,0.7-0.3,0.9c-0.2,0.2-0.4,0.3-0.7,0.3c-0.3,0-0.5-0.1-0.7-0.3c-0.2-0.2-0.3-0.4-0.3-0.7v-4.4h-3.5v5.1
		c0,1,0.3,1.9,0.8,2.5c0.5,0.6,1.3,0.9,2.2,0.9c1,0,1.8-0.4,2.4-1.1v0.9h3.5V97.8z M74.6,103.1h-4.5l4.3-5.1v-2.8H65v3h4.7l-4.8,5.6
		v2.3h9.7V103.1z"/>
</g>
</svg>
