<svg xmlns="http://www.w3.org/2000/svg" width="1920" height="32" viewBox="0 0 1920 32">
  <defs>
    <style>
      .cls-1 {
        fill: #f8f9fa;
        fill-rule: evenodd;
      }
    </style>
  </defs>
  <path id="Rectangle_13_copy" data-name="Rectangle 13 copy" class="cls-1" d="M82.064,183.43c42.087-3.572,83.533-9.778,125.566-13.56,85.554-7.713,172.5-4.271,257.988,1.909,85.629,6.193,172.312,17.654,258.7,14.767,82.035-2.736,162.418-14.794,244.166-19.333,86.513-4.8,172.523,2.43,258.423,8.768,86.85,6.407,172.94,10.578,260.22,5.127,85.56-5.341,170.26-15.3,256.04-19.291,59.4-2.753,117.75,1.993,176.83,5.183V155L0,157v27.9C27.337,185.743,54.532,185.772,82.064,183.43Z" transform="translate(0 -155)"/>
</svg>
