<svg xmlns="http://www.w3.org/2000/svg" width="1920" height="32" viewBox="0 0 1920 32">
  <defs>
    <style>
      .cls-1 {
        fill: #f8f9fa;
        fill-rule: evenodd;
      }
    </style>
  </defs>
  <path id="shape_despartitor" class="cls-1" d="M1837.94,470.57c-42.09,3.572-83.54,9.778-125.57,13.56-85.55,7.713-172.49,4.271-257.99-1.909-85.63-6.193-172.31-17.654-258.7-14.767-82.04,2.736-162.42,14.794-244.167,19.333-86.513,4.8-172.523-2.43-258.421-8.768-86.85-6.407-172.938-10.578-260.219-5.127-85.564,5.341-170.264,15.3-256.048,19.291C117.426,494.936,59.078,490.19,0,487v12l1920-2V469.1C1892.66,468.257,1865.47,468.228,1837.94,470.57Z" transform="translate(0 -467)"/>
</svg>
