<svg xmlns="http://www.w3.org/2000/svg" width="15.87" height="15.844" viewBox="0 0 15.87 15.844">
  <defs>
    <style>
      .cls-1 {
        fill: #fff;
        fill-rule: evenodd;
      }
    </style>
  </defs>
  <path id="wa_icon_small" class="cls-1" d="M1493.25,22.943l1.14-4.242a7.747,7.747,0,0,1-.99-3.784,7.879,7.879,0,1,1,4.13,6.884Zm4.49-2.732,0.27,0.16a6.358,6.358,0,1,0-2.19-2.161l0.17,0.27-0.64,2.369Zm6.45-4.206a1.339,1.339,0,0,0-1.13-.253,2.484,2.484,0,0,0-.67.808,0.276,0.276,0,0,1-.36.079,5.052,5.052,0,0,1-2.54-2.172,0.3,0.3,0,0,1,.04-0.425,1.742,1.742,0,0,0,.46-0.748,1.631,1.631,0,0,0-.21-0.886,2.068,2.068,0,0,0-.65-0.985,0.906,0.906,0,0,0-.98.145,1.988,1.988,0,0,0-.69,1.564,2.741,2.741,0,0,0,.07.5,4.038,4.038,0,0,0,.47,1.1c0.16,0.26.32,0.513,0.5,0.756a7.8,7.8,0,0,0,2.16,2,6.774,6.774,0,0,0,1.35.639,3.006,3.006,0,0,0,1.57.247,1.91,1.91,0,0,0,1.43-1.055,0.907,0.907,0,0,0,.06-0.538A1.633,1.633,0,0,0,1504.19,16.006Z" transform="translate(-1493.25 -7.094)"/>
</svg>
