<svg xmlns="http://www.w3.org/2000/svg" width="70.438" height="70.44" viewBox="0 0 70.438 70.44">
  <defs>
    <style>
      .cls-1 {
        fill: #f00606;
        fill-rule: evenodd;
      }
    </style>
  </defs>
  <path id="youtube_btn" class="cls-1" d="M918.746,2015.23a35.21,35.21,0,1,1-35.211,35.21A35.208,35.208,0,0,1,918.746,2015.23Zm14.7,35.44a3.951,3.951,0,0,0-3.372-3.09,155.285,155.285,0,0,0-23.363,0,3.95,3.95,0,0,0-3.371,3.09,51.007,51.007,0,0,0-.006,14.9,3.96,3.96,0,0,0,3.371,3.1,158.886,158.886,0,0,0,23.363,0,3.962,3.962,0,0,0,3.372-3.1A51.379,51.379,0,0,0,933.447,2050.67Zm-21.758,1.85h-2.258v12.12h-2.1v-12.12h-2.217v-1.98h6.572v1.98Zm5.7,12.12H915.5v-1.14a3.04,3.04,0,0,1-2.154,1.29,1.159,1.159,0,0,1-1.215-.78,5.437,5.437,0,0,1-.166-1.57v-8.31h1.885v7.74a5.948,5.948,0,0,0,.017.74,0.435,0.435,0,0,0,.441.45,1.674,1.674,0,0,0,1.192-.89v-8.04h1.886v10.51h0Zm7.161-3.15a8.539,8.539,0,0,1-.19,2.12,1.5,1.5,0,0,1-1.506,1.18,2.565,2.565,0,0,1-1.949-1.17v1.02h-1.885v-14.1H920.9v4.61a2.539,2.539,0,0,1,1.949-1.14,1.486,1.486,0,0,1,1.506,1.18,8.178,8.178,0,0,1,.19,2.11v4.19Zm7.115-1.75h-3.77v1.86c0,0.97.315,1.46,0.963,1.46a0.818,0.818,0,0,0,.842-0.77,12.16,12.16,0,0,0,.042-1.29h1.923v0.28c0,0.61-.023,1.04-0.04,1.23a2.744,2.744,0,0,1-.44,1.14,2.609,2.609,0,0,1-2.28,1.14,2.686,2.686,0,0,1-2.282-1.08,4.077,4.077,0,0,1-.605-2.47v-3.68a4.165,4.165,0,0,1,.582-2.48,2.663,2.663,0,0,1,2.258-1.07,2.6,2.6,0,0,1,2.224,1.07,4.2,4.2,0,0,1,.584,2.48v2.18h0Zm-2.824-4.02c-0.63,0-.946.49-0.946,1.46v0.97h1.885v-0.97C929.777,2056.21,929.462,2055.72,928.838,2055.72Zm-7,0a1.359,1.359,0,0,0-.94.46v6.41a1.333,1.333,0,0,0,.94.47c0.544,0,.82-0.47.82-1.42v-4.49C922.662,2056.21,922.386,2055.72,921.842,2055.72Zm1.053-9.55a3.037,3.037,0,0,0,2.176-1.3v1.16h1.906v-10.62h-1.906v8.12a1.679,1.679,0,0,1-1.2.9,0.445,0.445,0,0,1-.447-0.46,4.405,4.405,0,0,1-.023-0.74v-7.82h-1.9v8.4a5.432,5.432,0,0,0,.169,1.58A1.171,1.171,0,0,0,922.9,2046.17Zm-13.264-5.91v5.77h2.113v-5.77l2.542-8.48h-2.137l-1.441,5.59-1.5-5.59h-2.223c0.445,1.32.909,2.65,1.354,3.97A35.013,35.013,0,0,1,909.631,2040.26Zm7.486,5.91a2.594,2.594,0,0,0,2.223-1.08,4.2,4.2,0,0,0,.591-2.5v-3.72a4.209,4.209,0,0,0-.591-2.5,2.807,2.807,0,0,0-4.441,0,4.17,4.17,0,0,0-.6,2.5v3.72a4.15,4.15,0,0,0,.6,2.5A2.593,2.593,0,0,0,917.117,2046.17Zm-0.909-7.69c0-.98.3-1.47,0.909-1.47s0.909,0.49.909,1.47v4.47c0,0.99-.294,1.48-0.909,1.48s-0.909-.49-0.909-1.48v-4.47Z" transform="translate(-883.531 -2015.22)"/>
</svg>
